<?xml version="1.0" encoding="UTF-8" standalone="no"?>
<svg
   xmlns:dc="http://purl.org/dc/elements/1.1/"
   xmlns:cc="http://creativecommons.org/ns#"
   xmlns:rdf="http://www.w3.org/1999/02/22-rdf-syntax-ns#"
   xmlns:svg="http://www.w3.org/2000/svg"
   xmlns="http://www.w3.org/2000/svg"
   xmlns:xlink="http://www.w3.org/1999/xlink"
   xmlns:sodipodi="http://sodipodi.sourceforge.net/DTD/sodipodi-0.dtd"
   xmlns:inkscape="http://www.inkscape.org/namespaces/inkscape"
   width="76mm"
   height="54mm"
   viewBox="0 0 76.000001 54"
   version="1.1"
   id="svg8"
   inkscape:version="1.0.2 (e86c870879, 2021-01-15)"
   sodipodi:docname="multiocular-o.svg">
  <defs
     id="defs2">
    <linearGradient
       inkscape:collect="always"
       id="linearGradient3572">
      <stop
         style="stop-color:#ffffff;stop-opacity:0.63312316"
         offset="0"
         id="stop3568" />
      <stop
         style="stop-color:#ffffff;stop-opacity:0;"
         offset="1"
         id="stop3570" />
    </linearGradient>
    <inkscape:path-effect
       effect="spiro"
       id="path-effect2802"
       is_visible="true"
       lpeversion="1" />
    <inkscape:path-effect
       effect="skeletal"
       id="path-effect2790"
       is_visible="true"
       lpeversion="1"
       pattern="M 0,5 C 0,2.24 2.24,0 5,0 7.76,0 10,2.24 10,5 10,7.76 7.76,10 5,10 2.24,10 0,7.76 0,5 Z"
       copytype="single_stretched"
       prop_scale="1"
       scale_y_rel="false"
       spacing="0"
       normal_offset="0"
       tang_offset="0"
       prop_units="false"
       vertical_pattern="false"
       hide_knot="false"
       fuse_tolerance="0" />
    <inkscape:path-effect
       effect="skeletal"
       id="path-effect2784"
       is_visible="true"
       lpeversion="1"
       pattern="M 0,5 C 0,2.24 2.24,0 5,0 7.76,0 10,2.24 10,5 10,7.76 7.76,10 5,10 2.24,10 0,7.76 0,5 Z"
       copytype="single_stretched"
       prop_scale="1"
       scale_y_rel="false"
       spacing="0"
       normal_offset="0"
       tang_offset="0"
       prop_units="false"
       vertical_pattern="false"
       hide_knot="false"
       fuse_tolerance="0" />
    <inkscape:path-effect
       effect="powerstroke"
       id="path-effect2778"
       is_visible="true"
       lpeversion="1"
       offset_points="22,0.1"
       sort_points="true"
       interpolator_type="CubicBezierJohan"
       interpolator_beta="0.2"
       start_linecap_type="zerowidth"
       linejoin_type="extrp_arc"
       miter_limit="4"
       scale_width="1"
       end_linecap_type="zerowidth" />
    <inkscape:path-effect
       effect="powerstroke"
       id="path-effect2772"
       is_visible="true"
       lpeversion="1"
       offset_points="16,0.1"
       sort_points="true"
       interpolator_type="CubicBezierJohan"
       interpolator_beta="0.2"
       start_linecap_type="zerowidth"
       linejoin_type="extrp_arc"
       miter_limit="4"
       scale_width="1"
       end_linecap_type="zerowidth" />
    <inkscape:path-effect
       effect="powerstroke"
       id="path-effect2766"
       is_visible="true"
       lpeversion="1"
       offset_points="0,0.1"
       sort_points="true"
       interpolator_type="CubicBezierJohan"
       interpolator_beta="0.2"
       start_linecap_type="zerowidth"
       linejoin_type="extrp_arc"
       miter_limit="4"
       scale_width="1"
       end_linecap_type="zerowidth" />
    <inkscape:path-effect
       effect="spiro"
       id="path-effect883"
       is_visible="true"
       lpeversion="1" />
    <inkscape:path-effect
       effect="simplify"
       id="path-effect881"
       is_visible="true"
       lpeversion="1"
       steps="1"
       threshold="0.00243902"
       smooth_angles="360"
       helper_size="0"
       simplify_individual_paths="false"
       simplify_just_coalesce="false" />
    <linearGradient
       inkscape:collect="always"
       xlink:href="#linearGradient3572"
       id="linearGradient3574"
       x1="130.70494"
       y1="64.999474"
       x2="130.70494"
       y2="61.446342"
       gradientUnits="userSpaceOnUse"
       gradientTransform="matrix(0.68320034,0,0,0.83887361,21.741609,39.117582)" />
  </defs>
  <sodipodi:namedview
     id="base"
     pagecolor="#ffffff"
     bordercolor="#666666"
     borderopacity="1.0"
     inkscape:pageopacity="0.0"
     inkscape:pageshadow="2"
     inkscape:zoom="2.1847095"
     inkscape:cx="197.51261"
     inkscape:cy="87.822617"
     inkscape:document-units="mm"
     inkscape:current-layer="layer3"
     inkscape:document-rotation="0"
     showgrid="false"
     inkscape:window-width="1598"
     inkscape:window-height="878"
     inkscape:window-x="0"
     inkscape:window-y="20"
     inkscape:window-maximized="1"
     inkscape:snap-global="false"
     showguides="true"
     inkscape:guide-bbox="true"
     inkscape:snap-smooth-nodes="false"
     inkscape:object-paths="false"
     inkscape:snap-bbox="false"
     inkscape:snap-center="true"
     fit-margin-top="0"
     fit-margin-left="0"
     fit-margin-right="0"
     fit-margin-bottom="0"
     inkscape:snap-others="false"
     inkscape:snap-page="true"
     inkscape:bbox-paths="true"
     inkscape:snap-nodes="true"
     inkscape:bbox-nodes="true"
     borderlayer="true">
    <sodipodi:guide
       position="-30.118674,89.086171"
       orientation="-0.98095516,0.19423435"
       id="guide2967"
       inkscape:label=""
       inkscape:locked="false"
       inkscape:color="rgb(0,0,255)" />
    <sodipodi:guide
       position="50.148404,-5.5632064"
       orientation="0,1"
       id="guide3062" />
    <sodipodi:guide
       position="39.117522,1"
       orientation="0,1"
       id="guide1531"
       inkscape:label=""
       inkscape:locked="false"
       inkscape:color="rgb(0,0,255)" />
    <sodipodi:guide
       position="31.608895,53.000002"
       orientation="0,1"
       id="guide1533"
       inkscape:label=""
       inkscape:locked="false"
       inkscape:color="rgb(0,0,255)" />
  </sodipodi:namedview>
  <metadata
     id="metadata5">
    <rdf:RDF>
      <cc:Work
         rdf:about="">
        <dc:format>image/svg+xml</dc:format>
        <dc:type
           rdf:resource="http://purl.org/dc/dcmitype/StillImage" />
        <dc:title></dc:title>
      </cc:Work>
    </rdf:RDF>
  </metadata>
  <g
     inkscape:groupmode="layer"
     id="layer3"
     inkscape:label="text"
     style="display:inline;opacity:1"
     transform="translate(-72.334564,-52.893532)">
    <image
       xlink:href="multiocular-o-bg-extended.jpg"
       style="display:inline;stroke-width:1.43654"
       y="52.789097"
       x="70.683884"
       id="image1576"
       preserveAspectRatio="none"
       height="54.105278"
       width="79.301369" />
    <rect
       style="display:inline;fill:url(#linearGradient3574);fill-opacity:1;fill-rule:evenodd;stroke:none;stroke-width:0.2;stroke-miterlimit:4;stroke-dasharray:none;stroke-opacity:1;stop-color:#000000"
       id="rect1648"
       width="79.301369"
       height="17.152225"
       x="70.683884"
       y="89.845741" />
    <g
       id="full-text"
       transform="matrix(0.69259892,0,0,0.69259892,59.725025,-0.47832112)"
       style="stroke-width:1.38645">
      <path
         d="m 24.225566,112.45675 c 0.564226,0 1.195395,-0.28689 1.711805,-0.94675 -0.04782,-0.11476 -0.105195,-0.20083 -0.200826,-0.26777 -0.306021,0.33471 -0.669421,0.55466 -1.042385,0.55466 -0.793742,0 -0.765052,-1.02326 -0.631168,-1.817 0.133884,-0.78418 0.420779,-1.60661 1.11889,-1.60661 0.344273,0 0.506847,0.20083 0.459031,0.832 0.172137,0.0287 0.353837,0.01 0.459032,-0.0383 0.03825,-0.34427 0.114758,-0.71723 0.219953,-1.03282 -0.21039,-0.15301 -0.545101,-0.22951 -0.889374,-0.22951 -1.214522,0 -1.922195,0.94675 -2.20909,2.19952 -0.258206,1.12846 -0.153011,2.35254 1.004132,2.35254 z"
         style="font-style:italic;font-variant:normal;font-weight:normal;font-stretch:normal;font-size:9.56316px;line-height:1.2;font-family:Vollkorn;-inkscape-font-specification:'Vollkorn, Italic';font-variant-ligatures:no-common-ligatures discretionary-ligatures;font-variant-caps:normal;font-variant-numeric:ordinal;font-variant-east-asian:normal;text-decoration:none;text-decoration-line:none;text-decoration-color:#000000;letter-spacing:-0.0125516px;word-spacing:0px;writing-mode:lr-tb;fill:#423a1d;fill-opacity:1;fill-rule:evenodd;stroke:none;stroke-width:0.18792;stroke-opacity:0.5"
         id="path2969" />
      <path
         d="m 28.803316,107.90469 c -0.870248,0 -1.826564,0.74592 -2.151711,2.35253 -0.200827,0.99457 -0.114758,2.19953 0.985005,2.19953 0.707674,0 1.2719,-0.41122 1.673553,-0.94675 -0.03825,-0.12432 -0.105195,-0.21039 -0.200826,-0.27733 -0.315584,0.38252 -0.659858,0.53553 -0.965879,0.53553 -0.621606,0 -0.736364,-0.65986 -0.669422,-1.33884 0.822432,-0.0574 2.05608,-0.62161 2.247343,-1.46316 0.114758,-0.51641 -0.172137,-1.06151 -0.918063,-1.06151 z m 0.143447,1.18583 c -0.124321,0.59291 -0.7268,0.91806 -1.424911,0.985 v -0.01 c 0.191263,-1.12845 0.621606,-1.67355 1.032822,-1.67355 0.315584,0 0.468594,0.30602 0.392089,0.69811 z"
         style="font-style:italic;font-variant:normal;font-weight:normal;font-stretch:normal;font-size:9.56316px;line-height:1.2;font-family:Vollkorn;-inkscape-font-specification:'Vollkorn, Italic';font-variant-ligatures:no-common-ligatures discretionary-ligatures;font-variant-caps:normal;font-variant-numeric:ordinal;font-variant-east-asian:normal;text-decoration:none;text-decoration-line:none;text-decoration-color:#000000;letter-spacing:-0.0125516px;word-spacing:0px;writing-mode:lr-tb;fill:#423a1d;fill-opacity:1;fill-rule:evenodd;stroke:none;stroke-width:0.18792;stroke-opacity:0.5"
         id="path2971" />
      <path
         d="m 33.409768,107.89512 c -0.803305,0 -1.587485,0.99457 -1.941321,1.96045 h -0.01913 l 0.08607,-0.21995 c 0.15301,-0.3634 0.248642,-0.71724 0.306021,-1.09977 0.05738,-0.35383 0,-0.5451 -0.200827,-0.61204 -0.277331,0.14345 -0.985005,0.3634 -1.291026,0.39209 -0.05738,0.0956 -0.05738,0.22952 -0.05738,0.3634 0.612042,0 0.650295,0.0383 0.487721,0.92763 l -0.898937,5.10673 h 0.870248 l 0.219952,-1.25278 c 0.09563,-0.52597 0.114758,-0.82243 0.09563,-1.07107 0.133884,0.0287 0.306021,0.0574 0.439905,0.0574 1.243211,0 2.276032,-1.06151 2.57249,-2.53424 0.277332,-1.41535 -0.02869,-2.01783 -0.669421,-2.01783 z m -0.258205,2.45774 c -0.191264,0.94675 -0.621606,1.60661 -1.405785,1.60661 -0.210389,0 -0.411216,-0.0287 -0.583353,-0.0956 l 0.162574,-0.66942 c 0.3634,-1.57792 1.214521,-2.52467 1.549232,-2.52467 0.382526,0 0.506848,0.60248 0.277332,1.68312 z"
         style="font-style:italic;font-variant:normal;font-weight:normal;font-stretch:normal;font-size:9.56316px;line-height:1.2;font-family:Vollkorn;-inkscape-font-specification:'Vollkorn, Italic';font-variant-ligatures:no-common-ligatures discretionary-ligatures;font-variant-caps:normal;font-variant-numeric:ordinal;font-variant-east-asian:normal;text-decoration:none;text-decoration-line:none;text-decoration-color:#000000;letter-spacing:-0.0125516px;word-spacing:0px;writing-mode:lr-tb;fill:#423a1d;fill-opacity:1;fill-rule:evenodd;stroke:none;stroke-width:0.18792;stroke-opacity:0.5"
         id="path2973" />
      <path
         d="m 38.341361,111.51 c -0.248642,0.21039 -0.382526,0.28689 -0.535537,0.28689 -0.210389,0 -0.200826,-0.13388 -0.05738,-0.83199 l 0.478158,-2.14215 c 0.172136,-0.76505 0.09563,-0.87025 -0.01913,-0.91806 -0.133884,0.0574 -0.353837,0.0861 -0.5451,0.0861 -0.143447,-0.0478 -0.3634,-0.0861 -0.535537,-0.0861 -1.243211,0 -2.276032,1.06151 -2.57249,2.53423 -0.277332,1.41535 0.02869,2.01783 0.669421,2.01783 0.803306,0 1.587485,-0.99457 1.941322,-1.96045 h 0.02869 c -0.08607,0.20083 -0.239079,0.5451 -0.296458,0.69811 -0.162573,0.43991 -0.200826,1.26234 0.506848,1.26234 0.420779,0 0.793742,-0.29646 1.109326,-0.65029 -0.03825,-0.11476 -0.08607,-0.21039 -0.172137,-0.29646 z m -2.582053,0.17213 c -0.382526,0 -0.506847,-0.60247 -0.277331,-1.68311 0.191263,-0.94675 0.621605,-1.60661 1.405784,-1.60661 0.21039,0 0.411216,0.0287 0.583353,0.0956 l -0.162574,0.66942 c -0.3634,1.57792 -1.214521,2.52467 -1.549232,2.52467 z"
         style="font-style:italic;font-variant:normal;font-weight:normal;font-stretch:normal;font-size:9.56316px;line-height:1.2;font-family:Vollkorn;-inkscape-font-specification:'Vollkorn, Italic';font-variant-ligatures:no-common-ligatures discretionary-ligatures;font-variant-caps:normal;font-variant-numeric:ordinal;font-variant-east-asian:normal;text-decoration:none;text-decoration-line:none;text-decoration-color:#000000;letter-spacing:-0.0125516px;word-spacing:0px;writing-mode:lr-tb;fill:#423a1d;fill-opacity:1;fill-rule:evenodd;stroke:none;stroke-width:0.18792;stroke-opacity:0.5"
         id="path2975" />
      <path
         d="m 43.684176,108.03857 c -0.3634,0 -0.621606,0.0956 -0.812869,0.22952 0.01913,-0.0574 0.02869,-0.12432 0.03825,-0.1817 0.33471,-1.72137 0.573789,-2.1039 1.023258,-2.1039 0.392089,0 0.602479,0.24864 0.631168,0.89894 0.153011,0.01 0.296458,-0.0191 0.401653,-0.0765 0.01913,-0.35383 0.114758,-0.73636 0.248642,-1.02326 -0.162573,-0.12432 -0.51641,-0.23907 -0.994568,-0.23907 -1.013695,0 -1.960448,0.78417 -2.247343,2.48642 l -0.02869,0.19126 c -0.248642,-0.12432 -0.430343,-0.1817 -0.688548,-0.1817 -1.061511,0 -1.931758,0.78418 -2.142148,2.15171 -0.200826,1.29103 0.286895,2.13259 1.396222,2.13259 0.3634,0 0.631168,-0.0956 0.889374,-0.25821 -0.286895,1.79787 -0.439906,1.91263 -0.860685,1.91263 -0.401653,0 -0.765053,-0.0574 -1.061511,-0.15301 -0.05738,0.17214 -0.08607,0.37297 -0.06694,0.57379 0.258206,0.21995 0.564227,0.34428 0.851122,0.34428 0.87981,0 1.539668,-1.04239 1.931758,-2.61075 0.267768,0.14345 0.449468,0.19127 0.717237,0.19127 1.080637,0 1.941321,-0.82244 2.142148,-2.18997 0.200826,-1.33884 -0.344274,-2.09433 -1.367532,-2.09433 z m -3.595748,2.09433 c 0.191263,-1.0902 0.554663,-1.6353 1.310153,-1.6353 0.1817,0 0.306021,0.0287 0.478158,0.12432 -0.1817,1.18583 -0.286895,2.11346 -0.411216,2.97415 -0.229516,0.16257 -0.506848,0.28689 -0.784179,0.28689 -0.57379,0 -0.812869,-0.51641 -0.592916,-1.75006 z m 3.987837,0.0574 c -0.191263,1.13802 -0.573789,1.69268 -1.319716,1.69268 -0.1817,0 -0.306021,-0.0382 -0.478158,-0.13388 0.03825,-0.16258 0.06694,-0.33471 0.09563,-0.50685 0.0765,-0.47816 0.210389,-1.36753 0.411216,-2.49599 0.210389,-0.14344 0.449468,-0.24864 0.717237,-0.24864 0.5451,0 0.784179,0.44947 0.573789,1.69268 z"
         style="font-style:italic;font-variant:normal;font-weight:normal;font-stretch:normal;font-size:9.56316px;line-height:1.2;font-family:Vollkorn;-inkscape-font-specification:'Vollkorn, Italic';font-variant-ligatures:no-common-ligatures discretionary-ligatures;font-variant-caps:normal;font-variant-numeric:ordinal;font-variant-east-asian:normal;text-decoration:none;text-decoration-line:none;text-decoration-color:#000000;letter-spacing:-0.0125516px;word-spacing:0px;writing-mode:lr-tb;fill:#423a1d;fill-opacity:1;fill-rule:evenodd;stroke:none;stroke-width:0.18792;stroke-opacity:0.5"
         id="path2977" />
      <path
         d="m 46.550127,112.45675 c 0.736363,0 1.482289,-0.89894 1.778747,-1.53011 h 0.01913 c -0.07651,0.15302 -0.124321,0.30603 -0.153011,0.45904 -0.124321,0.63116 0.01913,1.07107 0.602479,1.07107 0.344274,0 0.765053,-0.29646 1.071074,-0.65029 -0.03825,-0.11476 -0.09563,-0.22952 -0.1817,-0.30603 -0.210389,0.21039 -0.33471,0.29646 -0.468595,0.29646 -0.219952,0 -0.210389,-0.0861 0.05738,-1.43447 l 0.468595,-2.37167 h -0.870247 l -0.219953,1.15715 c -0.334711,1.75962 -1.243211,2.60118 -1.606611,2.60118 -0.334711,0 -0.401653,-0.49729 -0.162574,-1.46317 0.516411,-2.14214 0.497285,-2.20909 0.21039,-2.38122 -0.248642,0.14344 -0.985006,0.3634 -1.271901,0.39209 -0.05738,0.10519 -0.06694,0.24864 -0.04781,0.3634 0.631168,0 0.659858,0.0287 0.277331,1.55879 -0.258205,1.02326 -0.382526,2.23778 0.497285,2.23778 z"
         style="font-style:italic;font-variant:normal;font-weight:normal;font-stretch:normal;font-size:9.56316px;line-height:1.2;font-family:Vollkorn;-inkscape-font-specification:'Vollkorn, Italic';font-variant-ligatures:no-common-ligatures discretionary-ligatures;font-variant-caps:normal;font-variant-numeric:ordinal;font-variant-east-asian:normal;text-decoration:none;text-decoration-line:none;text-decoration-color:#000000;letter-spacing:-0.0125516px;word-spacing:0px;writing-mode:lr-tb;fill:#423a1d;fill-opacity:1;fill-rule:evenodd;stroke:none;stroke-width:0.18792;stroke-opacity:0.5"
         id="path2979" />
      <path
         d="m 56.177236,111.51 c -0.15301,0.15301 -0.382526,0.29646 -0.554663,0.29646 -0.133884,0 -0.153011,-0.1052 -0.09563,-0.92763 l 0.200827,-2.88808 h -0.707674 l -1.577922,3.0124 -0.420779,-2.81157 c -0.01913,-0.15301 -0.09563,-0.24864 -0.210389,-0.28689 -0.296458,0.14344 -1.051948,0.3634 -1.377095,0.39209 -0.05738,0.0956 -0.05738,0.22951 -0.05738,0.3634 0.640732,0 0.765053,0.0574 0.372963,1.20495 -0.430342,1.28147 -0.631168,1.72137 -1.138016,1.72137 -0.09563,0 -0.277332,-0.0191 -0.411216,-0.0765 -0.143447,0.21995 -0.200826,0.53553 -0.15301,0.70767 0.114758,0.14345 0.344273,0.22952 0.612042,0.22952 0.678984,0 0.870247,-0.53554 1.491853,-2.39079 l 0.200826,-0.71724 0.478158,3.02196 c 0.143448,0.0191 0.277332,0.01 0.39209,-0.0383 l 1.568358,-2.97415 -0.114758,1.62574 c -0.05738,0.832 -0.15301,1.48229 0.564227,1.48229 0.3634,0 0.669421,-0.16257 1.118889,-0.64073 -0.03825,-0.12432 -0.08607,-0.21039 -0.1817,-0.30602 z"
         style="font-style:italic;font-variant:normal;font-weight:normal;font-stretch:normal;font-size:9.56316px;line-height:1.2;font-family:Vollkorn;-inkscape-font-specification:'Vollkorn, Italic';font-variant-ligatures:no-common-ligatures discretionary-ligatures;font-variant-caps:normal;font-variant-numeric:ordinal;font-variant-east-asian:normal;text-decoration:none;text-decoration-line:none;text-decoration-color:#000000;letter-spacing:-0.0125516px;word-spacing:0px;writing-mode:lr-tb;fill:#423a1d;fill-opacity:1;fill-rule:evenodd;stroke:none;stroke-width:0.18792;stroke-opacity:0.5"
         id="path2981" />
      <path
         d="m 57.886037,112.45675 c 0.736364,0 1.48229,-0.89894 1.778748,-1.53011 h 0.01913 c -0.07651,0.15302 -0.124322,0.30603 -0.153011,0.45904 -0.124321,0.63116 0.01913,1.07107 0.602479,1.07107 0.344274,0 0.765053,-0.29646 1.071074,-0.65029 -0.03825,-0.11476 -0.09563,-0.22952 -0.1817,-0.30603 -0.21039,0.21039 -0.334711,0.29646 -0.468595,0.29646 -0.219953,0 -0.210389,-0.0861 0.05738,-1.43447 l 0.468595,-2.37167 h -0.870248 l -0.219952,1.15715 c -0.334711,1.75962 -1.243211,2.60118 -1.606611,2.60118 -0.334711,0 -0.401653,-0.49729 -0.162574,-1.46317 0.516411,-2.14214 0.497284,-2.20909 0.21039,-2.38122 -0.248643,0.14344 -0.985006,0.3634 -1.271901,0.39209 -0.05738,0.10519 -0.06694,0.24864 -0.04782,0.3634 0.631169,0 0.659859,0.0287 0.277332,1.55879 -0.258205,1.02326 -0.382526,2.23778 0.497284,2.23778 z"
         style="font-style:italic;font-variant:normal;font-weight:normal;font-stretch:normal;font-size:9.56316px;line-height:1.2;font-family:Vollkorn;-inkscape-font-specification:'Vollkorn, Italic';font-variant-ligatures:no-common-ligatures discretionary-ligatures;font-variant-caps:normal;font-variant-numeric:ordinal;font-variant-east-asian:normal;text-decoration:none;text-decoration-line:none;text-decoration-color:#000000;letter-spacing:-0.0125516px;word-spacing:0px;writing-mode:lr-tb;fill:#423a1d;fill-opacity:1;fill-rule:evenodd;stroke:none;stroke-width:0.18792;stroke-opacity:0.5"
         id="path2983" />
      <path
         d="m 69.221946,111.51 c -0.15301,0.15301 -0.382526,0.29646 -0.554663,0.29646 -0.133884,0 -0.153011,-0.1052 -0.09563,-0.92763 l 0.200827,-2.88808 h -0.707674 l -1.577921,3.0124 -0.420779,-2.81157 c -0.01913,-0.15301 -0.09563,-0.24864 -0.21039,-0.28689 -0.296458,0.14344 -1.051948,0.3634 -1.377095,0.39209 -0.05738,0.0956 -0.05738,0.22951 -0.05738,0.3634 0.640732,0 0.765053,0.0574 0.372963,1.20495 -0.430342,1.28147 -0.631168,1.72137 -1.138016,1.72137 -0.09563,0 -0.277331,-0.0191 -0.411216,-0.0765 -0.143447,0.21995 -0.200826,0.53553 -0.15301,0.70767 0.114758,0.14345 0.344274,0.22952 0.612042,0.22952 0.678984,0 0.870248,-0.53554 1.491853,-2.39079 l 0.200826,-0.71724 0.478158,3.02196 c 0.143448,0.0191 0.277332,0.01 0.39209,-0.0383 l 1.568358,-2.97415 -0.114758,1.62574 c -0.05738,0.832 -0.15301,1.48229 0.564227,1.48229 0.3634,0 0.669421,-0.16257 1.118889,-0.64073 -0.03825,-0.12432 -0.08607,-0.21039 -0.1817,-0.30602 z"
         style="font-style:italic;font-variant:normal;font-weight:normal;font-stretch:normal;font-size:9.56316px;line-height:1.2;font-family:Vollkorn;-inkscape-font-specification:'Vollkorn, Italic';font-variant-ligatures:no-common-ligatures discretionary-ligatures;font-variant-caps:normal;font-variant-numeric:ordinal;font-variant-east-asian:normal;text-decoration:none;text-decoration-line:none;text-decoration-color:#000000;letter-spacing:-0.0125516px;word-spacing:0px;writing-mode:lr-tb;fill:#423a1d;fill-opacity:1;fill-rule:evenodd;stroke:none;stroke-width:0.18792;stroke-opacity:0.5"
         id="path2985" />
      <path
         d="m 74.220477,111.51 c -0.153011,0.15301 -0.401653,0.29646 -0.535537,0.29646 -0.162574,0 -0.153011,-0.0287 0.01913,-0.91807 l 0.564226,-2.89764 h -0.870247 l -0.382527,1.95089 h -1.577921 l 0.267768,-1.41535 c 0.06694,-0.35384 0,-0.55466 -0.200826,-0.6216 -0.277332,0.14344 -0.994569,0.3634 -1.30059,0.39209 -0.05738,0.0956 -0.05738,0.22951 -0.05738,0.3634 0.612043,0 0.650295,0.0383 0.487722,0.92762 l -0.525974,2.78288 h 0.870247 l 0.372964,-1.97957 c 0.430342,-0.0287 1.138016,-0.0382 1.587484,-0.0382 l -0.105195,0.52597 c -0.191263,0.985 -0.296458,1.57792 0.459032,1.57792 0.344274,0 0.678984,-0.21039 1.099763,-0.64073 -0.02869,-0.12432 -0.0765,-0.21039 -0.172136,-0.30602 z"
         style="font-style:italic;font-variant:normal;font-weight:normal;font-stretch:normal;font-size:9.56316px;line-height:1.2;font-family:Vollkorn;-inkscape-font-specification:'Vollkorn, Italic';font-variant-ligatures:no-common-ligatures discretionary-ligatures;font-variant-caps:normal;font-variant-numeric:ordinal;font-variant-east-asian:normal;text-decoration:none;text-decoration-line:none;text-decoration-color:#000000;letter-spacing:-0.0125516px;word-spacing:0px;writing-mode:lr-tb;fill:#423a1d;fill-opacity:1;fill-rule:evenodd;stroke:none;stroke-width:0.18792;stroke-opacity:0.5"
         id="path2987" />
      <path
         d="m 76.417002,112.45675 c 1.157142,0 2.113458,-1.00413 2.352537,-2.3621 0.229516,-1.2719 -0.306021,-2.18996 -1.434474,-2.18996 -1.138016,0 -2.084769,0.91806 -2.342974,2.26646 -0.258205,1.30059 0.277332,2.2856 1.424911,2.2856 z m 0.124321,-0.45903 c -0.57379,0 -0.822432,-0.81287 -0.602479,-1.9222 0.200826,-1.01369 0.69811,-1.7118 1.252774,-1.7118 0.583352,0 0.831995,0.76505 0.631168,1.82656 -0.191263,1.03282 -0.717237,1.80744 -1.281463,1.80744 z"
         style="font-style:italic;font-variant:normal;font-weight:normal;font-stretch:normal;font-size:9.56316px;line-height:1.2;font-family:Vollkorn;-inkscape-font-specification:'Vollkorn, Italic';font-variant-ligatures:no-common-ligatures discretionary-ligatures;font-variant-caps:normal;font-variant-numeric:ordinal;font-variant-east-asian:normal;text-decoration:none;text-decoration-line:none;text-decoration-color:#000000;letter-spacing:-0.0125516px;word-spacing:0px;writing-mode:lr-tb;fill:#423a1d;fill-opacity:1;fill-rule:evenodd;stroke:none;stroke-width:0.18792;stroke-opacity:0.5"
         id="path2989" />
      <path
         d="m 80.478358,112.45675 c 0.564226,0 1.042384,-0.23908 1.386658,-0.65029 -0.03825,-0.11476 -0.143447,-0.24865 -0.248642,-0.30603 -0.286895,0.22952 -0.659858,0.35384 -0.9085,0.35384 -0.401653,0 -0.592916,-0.32515 -0.478158,-0.73636 0.258205,-0.91807 1.711805,-1.05195 1.950884,-2.01783 0.153011,-0.6216 -0.306021,-1.19539 -1.147579,-1.19539 -0.678984,0 -1.138016,0.37296 -1.386658,0.66942 0.02869,0.11476 0.143447,0.24864 0.248642,0.30602 0.239079,-0.26777 0.57379,-0.39209 0.841558,-0.39209 0.468595,0 0.564227,0.37296 0.506848,0.67898 -0.1817,0.94676 -1.797874,0.94676 -1.989137,2.00827 -0.105195,0.57379 0.239079,1.28146 1.224084,1.28146 z"
         style="font-style:italic;font-variant:normal;font-weight:normal;font-stretch:normal;font-size:9.56316px;line-height:1.2;font-family:Vollkorn;-inkscape-font-specification:'Vollkorn, Italic';font-variant-ligatures:no-common-ligatures discretionary-ligatures;font-variant-caps:normal;font-variant-numeric:ordinal;font-variant-east-asian:normal;text-decoration:none;text-decoration-line:none;text-decoration-color:#000000;letter-spacing:-0.0125516px;word-spacing:0px;writing-mode:lr-tb;fill:#423a1d;fill-opacity:1;fill-rule:evenodd;stroke:none;stroke-width:0.18792;stroke-opacity:0.5"
         id="path2991" />
      <path
         d="m 84.185862,112.45675 c 1.157142,0 2.113458,-1.00413 2.352537,-2.3621 0.229516,-1.2719 -0.306021,-2.18996 -1.434474,-2.18996 -1.138016,0 -2.084769,0.91806 -2.342974,2.26646 -0.258206,1.30059 0.277331,2.2856 1.424911,2.2856 z m 0.124321,-0.45903 c -0.57379,0 -0.822432,-0.81287 -0.602479,-1.9222 0.200826,-1.01369 0.69811,-1.7118 1.252774,-1.7118 0.583352,0 0.831994,0.76505 0.631168,1.82656 -0.191263,1.03282 -0.717237,1.80744 -1.281463,1.80744 z"
         style="font-style:italic;font-variant:normal;font-weight:normal;font-stretch:normal;font-size:9.56316px;line-height:1.2;font-family:Vollkorn;-inkscape-font-specification:'Vollkorn, Italic';font-variant-ligatures:no-common-ligatures discretionary-ligatures;font-variant-caps:normal;font-variant-numeric:ordinal;font-variant-east-asian:normal;text-decoration:none;text-decoration-line:none;text-decoration-color:#000000;letter-spacing:-0.0125516px;word-spacing:0px;writing-mode:lr-tb;fill:#423a1d;fill-opacity:1;fill-rule:evenodd;stroke:none;stroke-width:0.18792;stroke-opacity:0.5"
         id="path2993" />
      <path
         d="m 102.21276,111.50043 c -0.21039,0.21039 -0.3634,0.29646 -0.50685,0.29646 -0.14345,0 -0.17214,-0.0861 -0.0765,-0.57379 l 0.64073,-3.23235 h -0.87025 c -0.28689,1.46317 -0.94675,2.61075 -1.520534,2.61075 -0.363398,0 -0.430338,-0.45903 -0.239078,-1.29103 0.277328,-1.19539 0.277328,-1.22408 -0.0191,-1.40578 -0.24864,0.14344 -0.985005,0.3634 -1.271906,0.39209 -0.0574,0.10519 -0.0669,0.24864 -0.0478,0.3634 0.640731,0 0.650301,0.0191 0.516411,0.60247 -0.19126,0.86069 -0.229511,2.04652 0.631175,2.04652 0.631162,0 1.243202,-0.6216 1.587482,-1.29103 h 0.0383 c -0.0669,0.15301 -0.14345,0.38253 -0.1817,0.58336 l -0.15302,0.82243 c -0.10519,0.57379 0.0191,1.03282 0.5451,1.03282 0.43035,0 0.81287,-0.31558 1.10933,-0.65029 -0.0383,-0.11476 -0.0956,-0.22952 -0.1817,-0.30603 z"
         style="font-style:italic;font-variant:normal;font-weight:normal;font-stretch:normal;font-size:9.56316px;line-height:1.2;font-family:Vollkorn;-inkscape-font-specification:'Vollkorn, Italic';font-variant-ligatures:no-common-ligatures discretionary-ligatures;font-variant-caps:normal;font-variant-numeric:ordinal;font-variant-east-asian:normal;text-decoration:none;text-decoration-line:none;text-decoration-color:#000000;letter-spacing:-0.0125516px;word-spacing:0px;writing-mode:lr-tb;fill:#423a1d;fill-opacity:1;fill-rule:evenodd;stroke:none;stroke-width:0.18792;stroke-opacity:0.5"
         id="path2995" />
      <path
         d="m 103.92157,112.45675 c 0.73636,0 1.48229,-0.89894 1.77875,-1.53011 h 0.0191 c -0.0765,0.15302 -0.12432,0.30603 -0.15301,0.45904 -0.12432,0.63116 0.0191,1.07107 0.60248,1.07107 0.34427,0 0.76505,-0.29646 1.07107,-0.65029 -0.0383,-0.11476 -0.0956,-0.22952 -0.1817,-0.30603 -0.21039,0.21039 -0.33471,0.29646 -0.46859,0.29646 -0.21996,0 -0.2104,-0.0861 0.0574,-1.43447 l 0.4686,-2.37167 h -0.87025 l -0.21995,1.15715 c -0.33471,1.75962 -1.24321,2.60118 -1.60661,2.60118 -0.33471,0 -0.40165,-0.49729 -0.16258,-1.46317 0.51641,-2.14214 0.49729,-2.20909 0.21039,-2.38122 -0.24864,0.14344 -0.985,0.3634 -1.2719,0.39209 -0.0574,0.10519 -0.0669,0.24864 -0.0478,0.3634 0.63117,0 0.65986,0.0287 0.27734,1.55879 -0.25821,1.02326 -0.38253,2.23778 0.49728,2.23778 z"
         style="font-style:italic;font-variant:normal;font-weight:normal;font-stretch:normal;font-size:9.56316px;line-height:1.2;font-family:Vollkorn;-inkscape-font-specification:'Vollkorn, Italic';font-variant-ligatures:no-common-ligatures discretionary-ligatures;font-variant-caps:normal;font-variant-numeric:ordinal;font-variant-east-asian:normal;text-decoration:none;text-decoration-line:none;text-decoration-color:#000000;letter-spacing:-0.0125516px;word-spacing:0px;writing-mode:lr-tb;fill:#423a1d;fill-opacity:1;fill-rule:evenodd;stroke:none;stroke-width:0.18792;stroke-opacity:0.5"
         id="path2997" />
      <path
         d="m 113.43392,112.45675 c 0.41122,0 0.75549,-0.19126 1.15715,-0.64073 -0.0191,-0.12432 -0.067,-0.21995 -0.16258,-0.30602 -0.22952,0.21039 -0.37297,0.28689 -0.54511,0.28689 -0.17212,0 -0.20081,-0.0765 0.01,-0.88937 l 0.28689,-1.11889 c 0.29646,-1.15714 0.0382,-1.88394 -0.60248,-1.88394 -0.71724,0 -1.57793,0.91806 -1.83613,1.49185 l -0.14344,0.31558 h -0.01 c 0.0956,-0.23908 0.17214,-0.48772 0.21039,-0.70767 0.12432,-0.77462 -0.28689,-1.0902 -0.69811,-1.0902 -0.69811,0 -1.51098,0.91806 -1.75962,1.48229 l -0.14345,0.31558 h -0.01 c 0.13388,-0.31558 0.23908,-0.64073 0.34427,-1.18583 0.0574,-0.35384 0,-0.55466 -0.20082,-0.6216 -0.27733,0.14344 -0.97545,0.3634 -1.28147,0.39209 -0.0574,0.10519 -0.0765,0.24864 -0.0574,0.3634 0.61205,0 0.65986,0.0383 0.49729,0.92762 l -0.52598,2.78288 h 0.87025 l 0.23908,-1.24321 c 0.31559,-1.61617 1.1954,-2.52467 1.65443,-2.52467 0.2582,0 0.34427,0.28689 0.0669,1.61617 l -0.4399,2.15171 h 0.86068 l 0.23908,-1.24321 c 0.33471,-1.67355 1.26234,-2.52467 1.70224,-2.52467 0.27733,0 0.32515,0.34427 0.12432,1.22408 l -0.24864,1.0902 c -0.23908,1.0902 -0.21995,1.53967 0.40165,1.53967 z"
         style="font-style:italic;font-variant:normal;font-weight:normal;font-stretch:normal;font-size:9.56316px;line-height:1.2;font-family:Vollkorn;-inkscape-font-specification:'Vollkorn, Italic';font-variant-ligatures:no-common-ligatures discretionary-ligatures;font-variant-caps:normal;font-variant-numeric:ordinal;font-variant-east-asian:normal;text-decoration:none;text-decoration-line:none;text-decoration-color:#000000;letter-spacing:-0.0125516px;word-spacing:0px;writing-mode:lr-tb;fill:#423a1d;fill-opacity:1;fill-rule:evenodd;stroke:none;stroke-width:0.18792;stroke-opacity:0.5"
         id="path2999" />
      <path
         d="m 115.92691,107.28308 c 0.27733,0 0.47814,-0.20083 0.53552,-0.46859 0.0669,-0.31559 -0.0765,-0.56423 -0.43989,-0.56423 -0.28691,0 -0.44948,0.16257 -0.50685,0.42078 -0.0765,0.32515 0.0765,0.61204 0.41122,0.61204 z m 1.49184,-0.01 c 0.27734,0 0.47817,-0.17214 0.53554,-0.48772 0.0669,-0.37297 -0.13388,-0.53554 -0.43035,-0.53554 -0.2582,0 -0.46859,0.12432 -0.53553,0.44947 -0.0669,0.33471 0.0956,0.57379 0.43034,0.57379 z m -1.56835,5.18323 c 0.35384,0 0.71724,-0.23908 1.09019,-0.64073 -0.0191,-0.13389 -0.0765,-0.23908 -0.17214,-0.30602 -0.19126,0.19126 -0.37296,0.27733 -0.49728,0.27733 -0.1817,0 -0.22951,-0.11476 -0.0478,-0.73636 l 0.52599,-1.84569 c 0.21995,-0.78418 0.13388,-1.13802 -0.25822,-1.30059 -0.22951,0.14344 -0.79374,0.35383 -1.09976,0.39209 -0.0478,0.10519 -0.0669,0.21995 -0.0574,0.3634 0.63117,0 0.65986,0.0765 0.38253,1.04238 l -0.39208,1.3771 c -0.22952,0.82243 -0.11477,1.37709 0.52597,1.37709 z"
         style="font-style:italic;font-variant:normal;font-weight:normal;font-stretch:normal;font-size:9.56316px;line-height:1.2;font-family:Vollkorn;-inkscape-font-specification:'Vollkorn, Italic';font-variant-ligatures:no-common-ligatures discretionary-ligatures;font-variant-caps:normal;font-variant-numeric:ordinal;font-variant-east-asian:normal;text-decoration:none;text-decoration-line:none;text-decoration-color:#000000;letter-spacing:-0.0125516px;word-spacing:0px;writing-mode:lr-tb;fill:#423a1d;fill-opacity:1;fill-rule:evenodd;stroke:none;stroke-width:0.18792;stroke-opacity:0.5"
         id="path3001" />
      <path
         id="path2824"
         style="font-style:italic;font-variant:normal;font-weight:normal;font-stretch:normal;font-size:9.56316px;line-height:1.2;font-family:Vollkorn;-inkscape-font-specification:'Vollkorn, Italic';font-variant-ligatures:no-common-ligatures discretionary-ligatures;font-variant-caps:normal;font-variant-numeric:ordinal;font-variant-east-asian:normal;text-decoration:none;text-decoration-line:none;text-decoration-color:#000000;letter-spacing:-0.0125516px;word-spacing:0px;writing-mode:lr-tb;fill:#423a1d;fill-opacity:1;fill-rule:evenodd;stroke:none;stroke-width:0.18792;stroke-opacity:0.5"
         d="m 121.77964,107.39559 h -0.551 q 0.0374,-0.72378 -0.72378,-0.72378 -0.4296,0 -0.90122,0.21947 -0.75179,0.35021 -1.41019,0.45761 l 0.1214,-0.62571 q 0.68642,-0.18211 1.06932,-0.37823 0.61639,-0.31286 1.20007,-0.31286 1.21407,0 1.21407,1.088 0,0.13074 -0.0187,0.2755 z m -3.31192,5.06116 c 0.73636,0 1.48229,-0.89894 1.77874,-1.53011 h 0.0191 c -0.0765,0.15302 -0.12432,0.30603 -0.15301,0.45904 -0.12432,0.63116 0.0191,1.07107 0.60248,1.07107 0.34427,0 0.76505,-0.29646 1.07107,-0.65029 -0.0383,-0.11476 -0.0956,-0.22952 -0.1817,-0.30603 -0.21039,0.21039 -0.33471,0.29646 -0.46859,0.29646 -0.21995,0 -0.2104,-0.0861 0.0574,-1.43447 l 0.46859,-2.37167 h -0.87025 l -0.21995,1.15715 c -0.33471,1.75962 -1.24321,2.60118 -1.60661,2.60118 -0.33471,0 -0.40165,-0.49729 -0.16257,-1.46317 0.5164,-2.14214 0.49728,-2.20909 0.21039,-2.38122 -0.24865,0.14344 -0.98501,0.3634 -1.2719,0.39209 -0.0574,0.10519 -0.067,0.24864 -0.0478,0.3634 0.63117,0 0.65986,0.0287 0.27733,1.55879 -0.2582,1.02326 -0.38252,2.23778 0.49729,2.23778 z" />
      <path
         id="path2860"
         style="fill:#c94523;fill-opacity:1;fill-rule:evenodd;stroke:#423a1d;stroke-width:0.284487;stroke-miterlimit:4;stroke-dasharray:none;stroke-opacity:1;stop-color:#000000"
         d="m 97.79102,107.02296 c -0.272562,-0.0419 -0.53043,-0.0261 -0.792302,-0.002 -0.138,0.53692 -0.375853,0.93269 -0.704993,1.19949 0.409888,0.0154 0.893232,0.096 1.13789,0.35621 0.233997,-0.36174 0.374526,-0.99177 0.359405,-1.55316 z"
         sodipodi:nodetypes="ccccc" />
      <path
         id="path2862"
         style="font-variation-settings:normal;opacity:1;vector-effect:none;fill:#c94523;fill-opacity:1;fill-rule:evenodd;stroke:#423a1d;stroke-width:0.284487;stroke-linecap:butt;stroke-linejoin:miter;stroke-miterlimit:4;stroke-dasharray:none;stroke-dashoffset:0;stroke-opacity:1;stop-color:#000000;stop-opacity:1"
         d="m 95.522579,111.67738 c 0.165608,0.26419 0.399152,0.65654 0.338036,1.17503 0.526506,-0.051 0.89912,0.0724 1.314403,-0.12193 0.124619,-0.64749 -0.09454,-1.02997 -0.166954,-1.47881 -0.493436,0.35258 -0.990222,0.42693 -1.485485,0.42571 z"
         sodipodi:nodetypes="ccccc" />
      <path
         id="path2864"
         style="fill:#c94523;fill-opacity:1;fill-rule:evenodd;stroke:#423a1d;stroke-width:0.284487;stroke-miterlimit:4;stroke-dasharray:none;stroke-opacity:1;stop-color:#000000"
         d="m 92.825251,114.37837 c -0.126772,0.12494 -0.271498,0.22478 -0.432471,0.3012 -0.02952,0.30616 -0.106105,0.68084 -0.05989,0.86833 0.06749,0.2739 0.824402,0.23169 0.996208,-0.0314 0.09502,-0.1455 0.138469,-0.41636 0.115979,-0.7103 -0.28043,-0.0705 -0.488044,-0.21174 -0.619817,-0.4278 z" />
      <path
         id="path2866"
         style="fill:#c94523;fill-opacity:1;fill-rule:evenodd;stroke:#423a1d;stroke-width:0.284487;stroke-miterlimit:4;stroke-dasharray:none;stroke-opacity:1;stop-color:#000000"
         d="m 89.483776,114.84482 c 0.158505,1.19708 1.196966,1.10585 1.491741,-0.0603 -0.239989,-0.0764 -0.420178,-0.21114 -0.539076,-0.40613 -0.252381,0.24689 -0.570094,0.39768 -0.952665,0.46646 z"
         sodipodi:nodetypes="cccc" />
      <path
         id="path2870"
         style="fill:#c94523;fill-opacity:1;fill-rule:evenodd;stroke:#423a1d;stroke-width:0.284487;stroke-miterlimit:4;stroke-dasharray:none;stroke-opacity:1;stop-color:#000000"
         d="m 95.718725,105.0747 c -0.195778,-0.4876 -0.298502,-0.8405 -0.613023,-1.17165 -0.861647,0.11444 -1.107757,0.58471 -1.667218,1.16742 0.518822,-4.4e-4 0.875871,0.14542 1.093922,0.45795 0.312609,-0.27425 0.704311,-0.43146 1.186319,-0.45372 z"
         sodipodi:nodetypes="ccccc" />
      <path
         id="path2858"
         style="fill:#c94523;fill-opacity:1;fill-rule:evenodd;stroke:#423a1d;stroke-width:0.284487;stroke-miterlimit:4;stroke-dasharray:none;stroke-opacity:1;stop-color:#000000"
         d="m 92.28105,103.80238 c -0.493956,0.26973 -0.794023,0.71994 -0.983042,1.28169 0.399431,0.043 0.686305,0.19781 0.856871,0.46731 0.249736,-0.24707 0.563419,-0.3982 0.940133,-0.45499 -0.367363,-0.32716 -0.569245,-0.77067 -0.813962,-1.29401 z" />
      <path
         id="path2856"
         style="fill:#c94523;fill-opacity:1;fill-rule:evenodd;stroke:#423a1d;stroke-width:0.284487;stroke-miterlimit:4;stroke-dasharray:none;stroke-opacity:1;stop-color:#000000"
         d="m 87.484367,106.94353 c 0.02646,0.53922 0.207196,1.05911 0.509789,1.56335 0.0785,8e-4 0.143058,-0.003 0.215385,-0.005 0.430381,-0.22048 0.767881,-0.27646 1.183983,-0.274 -0.280574,-0.29372 -0.35746,-0.76688 -0.231952,-1.41891 -0.553052,-0.0462 -1.184549,0.0279 -1.677205,0.13424 z"
         sodipodi:nodetypes="cccccc" />
      <path
         id="path2868"
         style="fill:#c94523;fill-opacity:1;fill-rule:evenodd;stroke:#423a1d;stroke-width:0.284487;stroke-miterlimit:4;stroke-dasharray:none;stroke-opacity:1;stop-color:#000000"
         d="m 87.884982,111.58345 c -0.298461,0.0491 -0.540025,0.10863 -0.658483,0.24385 -0.05796,0.39614 -0.05506,0.47507 0.118952,0.72943 0.122436,0.0708 0.454569,0.002 0.77955,-0.082 0.132822,-0.30821 0.442762,-0.55299 0.657849,-0.7659 -0.271288,-0.0278 -0.681934,-0.0309 -0.897868,-0.12538 z"
         sodipodi:nodetypes="cccccc" />
      <path
         id="path2722"
         style="font-style:italic;font-variant:normal;font-weight:normal;font-stretch:normal;font-size:9.56316px;line-height:1.2;font-family:Vollkorn;-inkscape-font-specification:'Vollkorn, Italic';font-variant-ligatures:no-common-ligatures discretionary-ligatures;font-variant-caps:normal;font-variant-numeric:ordinal;font-variant-east-asian:normal;text-decoration:none;text-decoration-line:none;text-decoration-color:#000000;letter-spacing:-0.0125516px;word-spacing:0px;writing-mode:lr-tb;fill:#423a1d;fill-opacity:1;fill-rule:evenodd;stroke:none;stroke-width:0.18792;stroke-opacity:0.5"
         d="m 97.733809,108.59826 c -0.214694,-0.30493 -0.588523,-0.45724 -1.121157,-0.45724 l -0.181513,0.0113 c 0.417562,-0.30107 0.694235,-0.80075 0.830237,-1.49937 0.116449,-0.59827 0.06747,-1.04985 -0.147204,-1.35478 -0.214686,-0.30492 -0.588523,-0.45723 -1.121172,-0.45723 -0.562409,0 -1.012976,0.16748 -1.352157,0.50196 -0.0092,-0.0147 -0.01691,-0.0306 -0.02684,-0.0447 -0.214686,-0.30492 -0.588522,-0.45723 -1.121164,-0.45723 -0.563531,0 -1.014923,0.1679 -1.354336,0.50369 -0.212539,-0.33579 -0.594845,-0.50369 -1.146789,-0.50363 -1.088456,7e-5 -1.750087,0.60398 -1.98527,1.81208 -0.13375,0.68704 -0.05313,1.18496 0.241857,1.49373 l -0.138084,-0.006 c -1.08844,0 -1.750079,0.60434 -1.985254,1.81243 -0.116474,0.59827 -0.07219,1.05344 0.1333,1.36606 0.209326,0.31265 0.580262,0.46897 1.112911,0.46897 0.05681,-6.8e-4 0.112924,-0.002 0.16935,-0.006 -0.413691,0.30105 -0.686687,0.79096 -0.818938,1.47027 -0.116457,0.59827 -0.0722,1.05386 0.133309,1.36649 0.20931,0.31265 0.580261,0.46897 1.112903,0.46897 0.571239,0 1.028865,-0.1679 1.372148,-0.50369 0.204807,0.33579 0.580887,0.50369 1.128977,0.50369 0.575318,0 1.031694,-0.16902 1.371275,-0.50369 0.204807,0.33579 0.580887,0.50369 1.128977,0.50369 1.09989,0 1.76915,-0.61177 2.007402,-1.83524 0.132122,-0.67931 0.05024,-1.1695 -0.246225,-1.4706 0.04816,0.004 0.0918,0.006 0.143685,0.006 1.100019,-5e-5 1.768213,-0.61217 2.006978,-1.83552 0.116458,-0.59829 0.06747,-1.04987 -0.147203,-1.35479 z m -7.996715,-0.79307 c -0.09149,-0.22387 -0.08423,-0.6082 0.02172,-1.15242 0.105199,-0.54037 0.2462,-0.91849 0.423371,-1.13463 0.177162,-0.21615 0.414485,-0.32437 0.711743,-0.32437 0.304966,0 0.50878,0.11222 0.611864,0.33608 0.103317,0.22387 0.103934,0.59799 0.0016,1.12292 -0.102412,0.52492 -0.249751,0.90524 -0.44237,1.14069 -0.188012,0.23158 -0.436456,0.34738 -0.739427,0.34738 -0.302972,0 -0.496993,-0.11179 -0.588499,-0.33565 z M 93.395,105.19377 c 0.304991,0 0.508812,0.11222 0.611888,0.33608 0.103317,0.22387 0.103926,0.59799 0.0016,1.12292 -0.102404,0.52492 -0.249823,0.90486 -0.442362,1.14069 -0.188012,0.23158 -0.436456,0.34738 -0.745236,0.34738 -0.297195,0 -0.491216,-0.11179 -0.582722,-0.33565 -0.09149,-0.22387 -0.08423,-0.6082 0.02989,-1.19585 0.112876,-0.54133 0.251096,-0.8945 0.424869,-1.10293 0.173782,-0.20843 0.408644,-0.31264 0.702072,-0.31264 z m 3.11214,0.33612 c 0.103397,0.22387 0.103942,0.59799 0.0016,1.12292 -0.102411,0.52492 -0.25011,0.90486 -0.442361,1.14069 -0.187996,0.23158 -0.436456,0.34738 -0.745237,0.34738 -0.297202,0 -0.491215,-0.11179 -0.582721,-0.33565 -0.09061,-0.22176 -0.08353,-0.60203 0.03197,-1.20367 0.111265,-0.53353 0.249494,-0.8867 0.421288,-1.09512 0.175632,-0.20844 0.410487,-0.31264 0.703738,-0.31263 0.304822,0 0.508636,0.11222 0.61172,0.33608 z m -6.337019,1.09425 c -0.02404,0.12351 -2.89e-4,0.22951 0.07115,0.31828 0.07612,0.0849 0.179679,0.12723 0.31092,0.12723 0.127363,0 0.245576,-0.0423 0.35475,-0.12723 0.109919,-0.0888 0.177018,-0.19477 0.201048,-0.31828 0.02476,-0.12737 -6.41e-4,-0.23559 -0.07596,-0.32436 -0.0754,-0.0888 -0.176585,-0.13332 -0.303964,-0.13332 -0.13125,0 -0.251802,0.0446 -0.359758,0.13332 -0.107956,0.0888 -0.173381,0.19699 -0.198188,0.32436 z m 2.501109,0 c -0.02404,0.12351 -2.81e-4,0.22951 0.07131,0.31828 0.07612,0.0849 0.17967,0.12723 0.310903,0.12723 0.127364,0 0.245592,-0.0423 0.354758,-0.12723 0.10992,-0.0888 0.177011,-0.19477 0.201041,-0.31828 0.02484,-0.12737 -6.33e-4,-0.23559 -0.07596,-0.32436 -0.0754,-0.0888 -0.176586,-0.13332 -0.303997,-0.13332 -0.13129,0 -0.251842,0.0446 -0.359838,0.13332 -0.107996,0.0888 -0.173405,0.19699 -0.19822,0.32436 z m 2.50026,0 c -0.02404,0.12351 -3.05e-4,0.22951 0.07115,0.31828 0.07612,0.085 0.179679,0.12723 0.310904,0.12723 0.127379,0 0.245592,-0.0423 0.354758,-0.12723 0.109927,-0.0888 0.177026,-0.19477 0.201056,-0.31828 0.02484,-0.12737 -6.25e-4,-0.23559 -0.07596,-0.32436 -0.0754,-0.0888 -0.176585,-0.13332 -0.303956,-0.13332 -0.131258,0 -0.25181,0.0446 -0.359798,0.13332 -0.107981,0.0888 -0.173373,0.19699 -0.198156,0.32436 z m -6.158639,1.86976 c 0.332001,0 0.539044,0.12559 0.621439,0.37647 0.08682,0.24703 0.08417,0.60777 -0.0084,1.08251 -0.09393,0.48248 -0.233036,0.85123 -0.417731,1.10596 -0.180744,0.25463 -0.437281,0.38212 -0.769211,0.38212 -0.29717,-1.1e-4 -0.491487,-0.1119 -0.582945,-0.33565 -0.09148,-0.22386 -0.08422,-0.60821 0.02131,-1.1505 0.105568,-0.54229 0.24701,-0.92041 0.424196,-1.13654 0.177187,-0.21615 0.414069,-0.32437 0.711351,-0.32437 z m 1.365987,1.45898 c 0.105191,-0.54036 0.246633,-0.91848 0.423795,-1.13462 0.177171,-0.21614 0.414053,-0.32436 0.711327,-0.32436 0.33201,0 0.539052,0.12559 0.621447,0.37647 0.08682,0.24703 0.08417,0.60777 -0.0084,1.08251 -0.09393,0.48248 -0.233052,0.85123 -0.417731,1.10596 -0.180744,0.25463 -0.437281,0.38212 -0.76921,0.38212 -0.29717,-1.1e-4 -0.491488,-0.1119 -0.582962,-0.33571 -0.09147,-0.2238 -0.08421,-0.60815 0.02171,-1.15237 z m 2.479025,1.1524 c -0.09075,-0.22772 -0.08353,-0.61205 0.02172,-1.15243 0.105184,-0.54035 0.246193,-0.91847 0.423363,-1.13461 0.177155,-0.21614 0.414485,-0.32436 0.711736,-0.32436 0.304966,0 0.508763,0.11222 0.611863,0.33608 0.103309,0.22386 0.103926,0.59797 0.0016,1.12289 -0.102411,0.52493 -0.248997,0.90537 -0.44237,1.1407 -0.187987,0.23159 -0.436015,0.34739 -0.738986,0.34739 -0.302971,0 -0.497418,-0.11179 -0.588924,-0.33566 z m 4.268913,-2.27535 c 0.103405,0.22386 0.103926,0.59797 0.0016,1.12289 -0.10242,0.52493 -0.249751,0.90526 -0.442258,1.1407 -0.187907,0.23159 -0.435919,0.34739 -0.744691,0.34739 -0.297202,0 -0.491649,-0.11179 -0.583162,-0.33566 -0.08978,-0.22536 -0.08293,-0.60527 0.02276,-1.15602 0.106898,-0.54323 0.246465,-0.91754 0.421833,-1.13103 0.177058,-0.21614 0.414373,-0.32435 0.715693,-0.32435 0.301321,0 0.505142,0.11221 0.608226,0.33608 z m -8.838152,1.09424 c -0.02404,0.1235 -2.73e-4,0.2295 0.07123,0.31829 0.07612,0.0849 0.179671,0.12722 0.310912,0.12722 0.127363,0 0.245584,-0.0423 0.354758,-0.12722 0.109919,-0.0888 0.177018,-0.19479 0.201049,-0.31829 0.02476,-0.12738 -6.57e-4,-0.23559 -0.07596,-0.32436 -0.0754,-0.0888 -0.176586,-0.13331 -0.304005,-0.13331 -0.131274,0 -0.251842,0.0446 -0.359798,0.13331 -0.107956,0.0888 -0.173365,0.19698 -0.198188,0.32436 z m 2.501125,0 c -0.02404,0.1235 -2.81e-4,0.2295 0.07115,0.31829 0.07612,0.0849 0.179663,0.12722 0.310896,0.12722 0.127371,0 0.245592,-0.0423 0.354758,-0.12722 0.109927,-0.0888 0.17701,-0.19479 0.201049,-0.31829 0.02484,-0.12738 -6.41e-4,-0.23559 -0.07596,-0.32436 -0.0754,-0.0888 -0.176586,-0.13331 -0.303965,-0.13331 -0.131226,0 -0.251794,0.0446 -0.35975,0.13331 -0.107956,0.0888 -0.173365,0.19698 -0.19818,0.32436 z m 2.501117,0 c -0.02404,0.1235 -2.8e-4,0.2295 0.07123,0.31829 0.07612,0.0849 0.179662,0.12722 0.310896,0.12722 0.127371,0 0.245591,-0.0423 0.354757,-0.12722 0.109928,-0.0888 0.177011,-0.19479 0.201049,-0.31829 0.02476,-0.12738 -6.41e-4,-0.23559 -0.07596,-0.32436 -0.0754,-0.0888 -0.176586,-0.13331 -0.304005,-0.13331 -0.131273,0 -0.251834,0.0446 -0.35979,0.13331 -0.107948,0.0888 -0.173364,0.19698 -0.19818,0.32436 z m 2.500252,0 c -0.02404,0.12351 -2.97e-4,0.22951 0.07123,0.31829 0.07612,0.0849 0.179662,0.12722 0.310903,0.12722 0.127364,0 0.245584,-0.0423 0.354758,-0.12722 0.109928,-0.0888 0.177011,-0.19478 0.201041,-0.31829 0.02492,-0.12738 -6.09e-4,-0.23559 -0.07596,-0.32436 -0.0754,-0.0888 -0.176594,-0.13331 -0.303965,-0.13331 -0.131233,0 -0.251786,0.0446 -0.359806,0.13332 -0.10802,0.0888 -0.173421,0.19697 -0.198204,0.32435 z m -7.338873,4.48117 c -0.09148,-0.22387 -0.08423,-0.6082 0.02171,-1.15243 0.1052,-0.54036 0.246209,-0.91847 0.423372,-1.13462 0.17717,-0.21615 0.414493,-0.32436 0.711735,-0.32436 0.304966,0 0.508771,0.11221 0.611872,0.33608 0.1033,0.22387 0.104046,0.59798 0.0016,1.1229 -0.09413,0.48247 -0.23318,0.85127 -0.418043,1.10595 -0.180936,0.25475 -0.43761,0.38213 -0.769547,0.38213 -0.297186,0 -0.491199,-0.1118 -0.582705,-0.33565 z m 2.501125,0 c -0.09074,-0.22773 -0.08344,-0.61207 0.02172,-1.15243 0.102186,-0.52492 0.240303,-0.89903 0.41511,-1.1229 0.178685,-0.22387 0.418876,-0.33608 0.719988,-0.33608 0.304974,0 0.508771,0.11221 0.611872,0.33608 0.103301,0.22387 0.10395,0.59818 0.0016,1.1229 -0.102395,0.52493 -0.24975,0.90526 -0.442361,1.1407 -0.188004,0.23159 -0.436456,0.34738 -0.745221,0.34738 -0.297186,0 -0.491199,-0.1118 -0.582705,-0.33565 z m 3.082909,0.33569 c -0.297202,0 -0.491199,-0.11181 -0.582713,-0.33566 -0.08978,-0.22535 -0.08294,-0.60526 0.02276,-1.15487 0.103974,-0.52821 0.240872,-0.89864 0.414124,-1.12051 0.178669,-0.22386 0.418412,-0.33608 0.719957,-0.33606 0.304926,4e-5 0.508731,0.11225 0.612008,0.33612 0.103285,0.22386 0.103797,0.59797 0.0016,1.12289 -0.102355,0.52493 -0.24971,0.90526 -0.44011,1.13878 -0.190391,0.23351 -0.438852,0.34931 -0.747624,0.34931 z m -5.151032,-1.51674 c -0.02404,0.12351 -2.88e-4,0.22951 0.07131,0.31827 0.07612,0.0849 0.179671,0.12724 0.310896,0.12724 0.127379,0 0.2456,-0.0423 0.354766,-0.12724 0.109927,-0.0888 0.17701,-0.19476 0.201048,-0.31827 0.02476,-0.12737 -6.49e-4,-0.23559 -0.07596,-0.32438 -0.0754,-0.0888 -0.176593,-0.1333 -0.304005,-0.1333 -0.131273,0 -0.251841,0.0446 -0.359838,0.13332 -0.107988,0.0888 -0.173404,0.19699 -0.19822,0.32436 z m 2.501117,0 c -0.02404,0.12351 -2.88e-4,0.22951 0.07131,0.31827 0.07612,0.0849 0.179671,0.12724 0.310896,0.12724 0.127379,0 0.2456,-0.0423 0.354766,-0.12724 0.109927,-0.0888 0.17701,-0.19476 0.201049,-0.31827 0.02484,-0.12737 -6.41e-4,-0.23559 -0.07596,-0.32438 -0.0754,-0.0888 -0.176593,-0.1333 -0.304004,-0.1333 -0.131274,0 -0.251842,0.0446 -0.359838,0.13332 -0.107989,0.0888 -0.173405,0.19699 -0.198221,0.32436 z m 2.500252,0 c -0.02404,0.12351 -2.96e-4,0.22951 0.07131,0.31827 0.07612,0.085 0.179671,0.12724 0.310904,0.12724 0.127371,0 0.245584,-0.0423 0.354766,-0.12724 0.109927,-0.0888 0.17701,-0.19476 0.20104,-0.31827 0.02492,-0.12737 -6.09e-4,-0.23559 -0.07596,-0.32438 -0.0754,-0.0888 -0.176593,-0.1333 -0.304005,-0.1333 -0.131281,0 -0.251841,0.0446 -0.359862,0.13332 -0.108012,0.0888 -0.173404,0.19699 -0.198196,0.32436 z"
         sodipodi:nodetypes="sccsssccsccsccscccscscscsccccsccccscccccccccccccsccsscccsssscccccssscsscssscscsscsscssscccscssscccsscssccscscssccccsscsccscsccsccsssscsccsscsccccsscsssccsscscsccssccccscssccccsscccsccsccsscccccssscccccssssccccss" />
      <path
         style="font-style:italic;font-variant:normal;font-weight:normal;font-stretch:normal;font-size:9.56316px;line-height:1.2;font-family:Vollkorn;-inkscape-font-specification:'Vollkorn, Italic';font-variant-ligatures:no-common-ligatures discretionary-ligatures;font-variant-caps:normal;font-variant-numeric:ordinal;font-variant-east-asian:normal;text-decoration:none;text-decoration-line:none;text-decoration-color:#000000;letter-spacing:-0.0125516px;word-spacing:0px;writing-mode:lr-tb;fill:#423a1d;fill-opacity:1;fill-rule:evenodd;stroke:none;stroke-width:0.18792;stroke-opacity:0.5"
         d="m 95.500825,103.45814 h -0.551 q 0.0374,-0.72378 -0.72378,-0.72378 -0.4296,0 -0.90122,0.21947 -0.75179,0.35021 -1.41019,0.45761 l 0.1214,-0.62571 q 0.68642,-0.18211 1.06932,-0.37823 0.61639,-0.31286 1.20007,-0.31286 1.21407,0 1.21407,1.088 0,0.13074 -0.0187,0.2755 z"
         id="path1490" />
    </g>
    <text
       xml:space="preserve"
       style="font-style:normal;font-variant:normal;font-weight:normal;font-stretch:normal;font-size:3.0487px;line-height:1.2;font-family:'Roboto Mono';-inkscape-font-specification:'Roboto Mono, Normal';font-variant-ligatures:no-common-ligatures discretionary-ligatures;font-variant-caps:normal;font-variant-numeric:ordinal;font-variant-east-asian:normal;font-variation-settings:normal;text-decoration:none;text-decoration-line:none;text-decoration-color:#000000;letter-spacing:-0.013338px;word-spacing:0px;writing-mode:lr-tb;display:inline;vector-effect:none;fill:#423a1d;fill-opacity:1;fill-rule:evenodd;stroke:none;stroke-width:0.130153;stroke-linecap:butt;stroke-linejoin:miter;stroke-miterlimit:4;stroke-dasharray:none;stroke-dashoffset:0;stroke-opacity:0.5;stop-color:#000000"
       x="77.613594"
       y="100.22566"
       id="text905"><tspan
         sodipodi:role="line"
         id="tspan903"
         x="77.613594"
         y="100.22566"
         style="font-style:normal;font-variant:normal;font-weight:normal;font-stretch:normal;font-size:3.0487px;font-family:'Roboto Mono';-inkscape-font-specification:'Roboto Mono, Normal';font-variant-ligatures:no-common-ligatures discretionary-ligatures;font-variant-caps:normal;font-variant-numeric:ordinal;font-variant-east-asian:normal;font-variation-settings:normal;vector-effect:none;fill:#423a1d;fill-opacity:1;stroke:none;stroke-width:0.130153;stroke-linecap:butt;stroke-linejoin:miter;stroke-miterlimit:4;stroke-dasharray:none;stroke-dashoffset:0;stroke-opacity:0.5;stop-color:#000000;stop-opacity:1">U+A66E CYRILLIC LETTER MULTIOCULAR O</tspan></text>
  </g>
</svg>
