<?xml version="1.0" encoding="UTF-8" standalone="no"?>
<svg
   xmlns:dc="http://purl.org/dc/elements/1.1/"
   xmlns:cc="http://creativecommons.org/ns#"
   xmlns:rdf="http://www.w3.org/1999/02/22-rdf-syntax-ns#"
   xmlns:svg="http://www.w3.org/2000/svg"
   xmlns="http://www.w3.org/2000/svg"
   xmlns:xlink="http://www.w3.org/1999/xlink"
   xmlns:sodipodi="http://sodipodi.sourceforge.net/DTD/sodipodi-0.dtd"
   xmlns:inkscape="http://www.inkscape.org/namespaces/inkscape"
   width="85mm"
   height="55mm"
   viewBox="0 0 85.000001 55"
   version="1.1"
   id="svg8"
   inkscape:version="1.0.2 (e86c870879, 2021-01-15)"
   sodipodi:docname="multiocular-o.svg">
  <defs
     id="defs2">
    <linearGradient
       inkscape:collect="always"
       id="linearGradient3572">
      <stop
         style="stop-color:#ffffff;stop-opacity:0.63312316"
         offset="0"
         id="stop3568" />
      <stop
         style="stop-color:#ffffff;stop-opacity:0;"
         offset="1"
         id="stop3570" />
    </linearGradient>
    <inkscape:path-effect
       effect="spiro"
       id="path-effect2802"
       is_visible="true"
       lpeversion="1" />
    <inkscape:path-effect
       effect="skeletal"
       id="path-effect2790"
       is_visible="true"
       lpeversion="1"
       pattern="M 0,5 C 0,2.24 2.24,0 5,0 7.76,0 10,2.24 10,5 10,7.76 7.76,10 5,10 2.24,10 0,7.76 0,5 Z"
       copytype="single_stretched"
       prop_scale="1"
       scale_y_rel="false"
       spacing="0"
       normal_offset="0"
       tang_offset="0"
       prop_units="false"
       vertical_pattern="false"
       hide_knot="false"
       fuse_tolerance="0" />
    <inkscape:path-effect
       effect="skeletal"
       id="path-effect2784"
       is_visible="true"
       lpeversion="1"
       pattern="M 0,5 C 0,2.24 2.24,0 5,0 7.76,0 10,2.24 10,5 10,7.76 7.76,10 5,10 2.24,10 0,7.76 0,5 Z"
       copytype="single_stretched"
       prop_scale="1"
       scale_y_rel="false"
       spacing="0"
       normal_offset="0"
       tang_offset="0"
       prop_units="false"
       vertical_pattern="false"
       hide_knot="false"
       fuse_tolerance="0" />
    <inkscape:path-effect
       effect="powerstroke"
       id="path-effect2778"
       is_visible="true"
       lpeversion="1"
       offset_points="22,0.1"
       sort_points="true"
       interpolator_type="CubicBezierJohan"
       interpolator_beta="0.2"
       start_linecap_type="zerowidth"
       linejoin_type="extrp_arc"
       miter_limit="4"
       scale_width="1"
       end_linecap_type="zerowidth" />
    <inkscape:path-effect
       effect="powerstroke"
       id="path-effect2772"
       is_visible="true"
       lpeversion="1"
       offset_points="16,0.1"
       sort_points="true"
       interpolator_type="CubicBezierJohan"
       interpolator_beta="0.2"
       start_linecap_type="zerowidth"
       linejoin_type="extrp_arc"
       miter_limit="4"
       scale_width="1"
       end_linecap_type="zerowidth" />
    <inkscape:path-effect
       effect="powerstroke"
       id="path-effect2766"
       is_visible="true"
       lpeversion="1"
       offset_points="0,0.1"
       sort_points="true"
       interpolator_type="CubicBezierJohan"
       interpolator_beta="0.2"
       start_linecap_type="zerowidth"
       linejoin_type="extrp_arc"
       miter_limit="4"
       scale_width="1"
       end_linecap_type="zerowidth" />
    <inkscape:path-effect
       effect="spiro"
       id="path-effect883"
       is_visible="true"
       lpeversion="1" />
    <inkscape:path-effect
       effect="simplify"
       id="path-effect881"
       is_visible="true"
       lpeversion="1"
       steps="1"
       threshold="0.00243902"
       smooth_angles="360"
       helper_size="0"
       simplify_individual_paths="false"
       simplify_just_coalesce="false" />
    <linearGradient
       inkscape:collect="always"
       xlink:href="#linearGradient3572"
       id="linearGradient3574"
       x1="130.70494"
       y1="64.999474"
       x2="130.70494"
       y2="61.446342"
       gradientUnits="userSpaceOnUse"
       gradientTransform="matrix(0.73229545,0,0,0.89915547,19.875277,37.239576)" />
  </defs>
  <sodipodi:namedview
     id="base"
     pagecolor="#ffffff"
     bordercolor="#666666"
     borderopacity="1.0"
     inkscape:pageopacity="0.0"
     inkscape:pageshadow="2"
     inkscape:zoom="8.4339856"
     inkscape:cx="117.34983"
     inkscape:cy="22.295506"
     inkscape:document-units="mm"
     inkscape:current-layer="layer3"
     inkscape:document-rotation="0"
     showgrid="false"
     inkscape:window-width="1598"
     inkscape:window-height="878"
     inkscape:window-x="0"
     inkscape:window-y="20"
     inkscape:window-maximized="1"
     inkscape:snap-global="true"
     showguides="true"
     inkscape:guide-bbox="true"
     inkscape:snap-smooth-nodes="false"
     inkscape:object-paths="false"
     inkscape:snap-bbox="false"
     inkscape:snap-center="true"
     fit-margin-top="0"
     fit-margin-left="0"
     fit-margin-right="0"
     fit-margin-bottom="0"
     inkscape:snap-others="false"
     inkscape:snap-page="true"
     inkscape:bbox-paths="true"
     inkscape:snap-nodes="true"
     inkscape:bbox-nodes="true">
    <sodipodi:guide
       position="-30.118674,89.086171"
       orientation="-0.98095516,0.19423435"
       id="guide2967"
       inkscape:label=""
       inkscape:locked="false"
       inkscape:color="rgb(0,0,255)" />
    <sodipodi:guide
       position="50.148404,-5.5632064"
       orientation="0,1"
       id="guide3062" />
  </sodipodi:namedview>
  <metadata
     id="metadata5">
    <rdf:RDF>
      <cc:Work
         rdf:about="">
        <dc:format>image/svg+xml</dc:format>
        <dc:type
           rdf:resource="http://purl.org/dc/dcmitype/StillImage" />
        <dc:title />
      </cc:Work>
    </rdf:RDF>
  </metadata>
  <g
     inkscape:groupmode="layer"
     id="layer2"
     inkscape:label="bg"
     style="display:inline"
     transform="translate(-72.334564,-51.893532)" />
  <g
     inkscape:groupmode="layer"
     id="layer3"
     inkscape:label="text"
     style="display:inline;opacity:1"
     transform="translate(-72.334564,-51.893532)">
    <image
       xlink:href="multiocular-o-bg-extended.jpg"
       width="85"
       height="57.993309"
       preserveAspectRatio="none"
       id="image1576"
       x="72.334564"
       y="51.893532"
       style="display:inline;opacity:1;stroke-width:1.34023" />
    <rect
       style="display:inline;opacity:1;fill:url(#linearGradient3574);fill-opacity:1;fill-rule:evenodd;stroke:none;stroke-width:0.2;stroke-miterlimit:4;stroke-dasharray:none;stroke-opacity:1;stop-color:#000000"
       id="rect1648"
       width="85"
       height="18.384792"
       x="72.334564"
       y="91.613083" />
    <g
       id="full-text"
       transform="matrix(0.71648266,0,0,0.71648266,61.186316,-2.3790291)"
       style="stroke-width:1.34023">
      <path
         d="m 24.225566,112.45675 c 0.564226,0 1.195395,-0.28689 1.711805,-0.94675 -0.04782,-0.11476 -0.105195,-0.20083 -0.200826,-0.26777 -0.306021,0.33471 -0.669421,0.55466 -1.042385,0.55466 -0.793742,0 -0.765052,-1.02326 -0.631168,-1.817 0.133884,-0.78418 0.420779,-1.60661 1.11889,-1.60661 0.344273,0 0.506847,0.20083 0.459031,0.832 0.172137,0.0287 0.353837,0.01 0.459032,-0.0383 0.03825,-0.34427 0.114758,-0.71723 0.219953,-1.03282 -0.21039,-0.15301 -0.545101,-0.22951 -0.889374,-0.22951 -1.214522,0 -1.922195,0.94675 -2.20909,2.19952 -0.258206,1.12846 -0.153011,2.35254 1.004132,2.35254 z"
         style="font-style:italic;font-variant:normal;font-weight:normal;font-stretch:normal;font-size:9.56316px;line-height:1.2;font-family:Vollkorn;-inkscape-font-specification:'Vollkorn, Italic';font-variant-ligatures:no-common-ligatures discretionary-ligatures;font-variant-caps:normal;font-variant-numeric:ordinal;font-variant-east-asian:normal;text-decoration:none;text-decoration-line:none;text-decoration-color:#000000;letter-spacing:-0.0125516px;word-spacing:0px;writing-mode:lr-tb;fill:#423a1d;fill-opacity:1;fill-rule:evenodd;stroke:none;stroke-width:0.181655;stroke-opacity:0.5"
         id="path2969" />
      <path
         d="m 28.803316,107.90469 c -0.870248,0 -1.826564,0.74592 -2.151711,2.35253 -0.200827,0.99457 -0.114758,2.19953 0.985005,2.19953 0.707674,0 1.2719,-0.41122 1.673553,-0.94675 -0.03825,-0.12432 -0.105195,-0.21039 -0.200826,-0.27733 -0.315584,0.38252 -0.659858,0.53553 -0.965879,0.53553 -0.621606,0 -0.736364,-0.65986 -0.669422,-1.33884 0.822432,-0.0574 2.05608,-0.62161 2.247343,-1.46316 0.114758,-0.51641 -0.172137,-1.06151 -0.918063,-1.06151 z m 0.143447,1.18583 c -0.124321,0.59291 -0.7268,0.91806 -1.424911,0.985 v -0.01 c 0.191263,-1.12845 0.621606,-1.67355 1.032822,-1.67355 0.315584,0 0.468594,0.30602 0.392089,0.69811 z"
         style="font-style:italic;font-variant:normal;font-weight:normal;font-stretch:normal;font-size:9.56316px;line-height:1.2;font-family:Vollkorn;-inkscape-font-specification:'Vollkorn, Italic';font-variant-ligatures:no-common-ligatures discretionary-ligatures;font-variant-caps:normal;font-variant-numeric:ordinal;font-variant-east-asian:normal;text-decoration:none;text-decoration-line:none;text-decoration-color:#000000;letter-spacing:-0.0125516px;word-spacing:0px;writing-mode:lr-tb;fill:#423a1d;fill-opacity:1;fill-rule:evenodd;stroke:none;stroke-width:0.181655;stroke-opacity:0.5"
         id="path2971" />
      <path
         d="m 33.409768,107.89512 c -0.803305,0 -1.587485,0.99457 -1.941321,1.96045 h -0.01913 l 0.08607,-0.21995 c 0.15301,-0.3634 0.248642,-0.71724 0.306021,-1.09977 0.05738,-0.35383 0,-0.5451 -0.200827,-0.61204 -0.277331,0.14345 -0.985005,0.3634 -1.291026,0.39209 -0.05738,0.0956 -0.05738,0.22952 -0.05738,0.3634 0.612042,0 0.650295,0.0383 0.487721,0.92763 l -0.898937,5.10673 h 0.870248 l 0.219952,-1.25278 c 0.09563,-0.52597 0.114758,-0.82243 0.09563,-1.07107 0.133884,0.0287 0.306021,0.0574 0.439905,0.0574 1.243211,0 2.276032,-1.06151 2.57249,-2.53424 0.277332,-1.41535 -0.02869,-2.01783 -0.669421,-2.01783 z m -0.258205,2.45774 c -0.191264,0.94675 -0.621606,1.60661 -1.405785,1.60661 -0.210389,0 -0.411216,-0.0287 -0.583353,-0.0956 l 0.162574,-0.66942 c 0.3634,-1.57792 1.214521,-2.52467 1.549232,-2.52467 0.382526,0 0.506848,0.60248 0.277332,1.68312 z"
         style="font-style:italic;font-variant:normal;font-weight:normal;font-stretch:normal;font-size:9.56316px;line-height:1.2;font-family:Vollkorn;-inkscape-font-specification:'Vollkorn, Italic';font-variant-ligatures:no-common-ligatures discretionary-ligatures;font-variant-caps:normal;font-variant-numeric:ordinal;font-variant-east-asian:normal;text-decoration:none;text-decoration-line:none;text-decoration-color:#000000;letter-spacing:-0.0125516px;word-spacing:0px;writing-mode:lr-tb;fill:#423a1d;fill-opacity:1;fill-rule:evenodd;stroke:none;stroke-width:0.181655;stroke-opacity:0.5"
         id="path2973" />
      <path
         d="m 38.341361,111.51 c -0.248642,0.21039 -0.382526,0.28689 -0.535537,0.28689 -0.210389,0 -0.200826,-0.13388 -0.05738,-0.83199 l 0.478158,-2.14215 c 0.172136,-0.76505 0.09563,-0.87025 -0.01913,-0.91806 -0.133884,0.0574 -0.353837,0.0861 -0.5451,0.0861 -0.143447,-0.0478 -0.3634,-0.0861 -0.535537,-0.0861 -1.243211,0 -2.276032,1.06151 -2.57249,2.53423 -0.277332,1.41535 0.02869,2.01783 0.669421,2.01783 0.803306,0 1.587485,-0.99457 1.941322,-1.96045 h 0.02869 c -0.08607,0.20083 -0.239079,0.5451 -0.296458,0.69811 -0.162573,0.43991 -0.200826,1.26234 0.506848,1.26234 0.420779,0 0.793742,-0.29646 1.109326,-0.65029 -0.03825,-0.11476 -0.08607,-0.21039 -0.172137,-0.29646 z m -2.582053,0.17213 c -0.382526,0 -0.506847,-0.60247 -0.277331,-1.68311 0.191263,-0.94675 0.621605,-1.60661 1.405784,-1.60661 0.21039,0 0.411216,0.0287 0.583353,0.0956 l -0.162574,0.66942 c -0.3634,1.57792 -1.214521,2.52467 -1.549232,2.52467 z"
         style="font-style:italic;font-variant:normal;font-weight:normal;font-stretch:normal;font-size:9.56316px;line-height:1.2;font-family:Vollkorn;-inkscape-font-specification:'Vollkorn, Italic';font-variant-ligatures:no-common-ligatures discretionary-ligatures;font-variant-caps:normal;font-variant-numeric:ordinal;font-variant-east-asian:normal;text-decoration:none;text-decoration-line:none;text-decoration-color:#000000;letter-spacing:-0.0125516px;word-spacing:0px;writing-mode:lr-tb;fill:#423a1d;fill-opacity:1;fill-rule:evenodd;stroke:none;stroke-width:0.181655;stroke-opacity:0.5"
         id="path2975" />
      <path
         d="m 43.684176,108.03857 c -0.3634,0 -0.621606,0.0956 -0.812869,0.22952 0.01913,-0.0574 0.02869,-0.12432 0.03825,-0.1817 0.33471,-1.72137 0.573789,-2.1039 1.023258,-2.1039 0.392089,0 0.602479,0.24864 0.631168,0.89894 0.153011,0.01 0.296458,-0.0191 0.401653,-0.0765 0.01913,-0.35383 0.114758,-0.73636 0.248642,-1.02326 -0.162573,-0.12432 -0.51641,-0.23907 -0.994568,-0.23907 -1.013695,0 -1.960448,0.78417 -2.247343,2.48642 l -0.02869,0.19126 c -0.248642,-0.12432 -0.430343,-0.1817 -0.688548,-0.1817 -1.061511,0 -1.931758,0.78418 -2.142148,2.15171 -0.200826,1.29103 0.286895,2.13259 1.396222,2.13259 0.3634,0 0.631168,-0.0956 0.889374,-0.25821 -0.286895,1.79787 -0.439906,1.91263 -0.860685,1.91263 -0.401653,0 -0.765053,-0.0574 -1.061511,-0.15301 -0.05738,0.17214 -0.08607,0.37297 -0.06694,0.57379 0.258206,0.21995 0.564227,0.34428 0.851122,0.34428 0.87981,0 1.539668,-1.04239 1.931758,-2.61075 0.267768,0.14345 0.449468,0.19127 0.717237,0.19127 1.080637,0 1.941321,-0.82244 2.142148,-2.18997 0.200826,-1.33884 -0.344274,-2.09433 -1.367532,-2.09433 z m -3.595748,2.09433 c 0.191263,-1.0902 0.554663,-1.6353 1.310153,-1.6353 0.1817,0 0.306021,0.0287 0.478158,0.12432 -0.1817,1.18583 -0.286895,2.11346 -0.411216,2.97415 -0.229516,0.16257 -0.506848,0.28689 -0.784179,0.28689 -0.57379,0 -0.812869,-0.51641 -0.592916,-1.75006 z m 3.987837,0.0574 c -0.191263,1.13802 -0.573789,1.69268 -1.319716,1.69268 -0.1817,0 -0.306021,-0.0382 -0.478158,-0.13388 0.03825,-0.16258 0.06694,-0.33471 0.09563,-0.50685 0.0765,-0.47816 0.210389,-1.36753 0.411216,-2.49599 0.210389,-0.14344 0.449468,-0.24864 0.717237,-0.24864 0.5451,0 0.784179,0.44947 0.573789,1.69268 z"
         style="font-style:italic;font-variant:normal;font-weight:normal;font-stretch:normal;font-size:9.56316px;line-height:1.2;font-family:Vollkorn;-inkscape-font-specification:'Vollkorn, Italic';font-variant-ligatures:no-common-ligatures discretionary-ligatures;font-variant-caps:normal;font-variant-numeric:ordinal;font-variant-east-asian:normal;text-decoration:none;text-decoration-line:none;text-decoration-color:#000000;letter-spacing:-0.0125516px;word-spacing:0px;writing-mode:lr-tb;fill:#423a1d;fill-opacity:1;fill-rule:evenodd;stroke:none;stroke-width:0.181655;stroke-opacity:0.5"
         id="path2977" />
      <path
         d="m 46.550127,112.45675 c 0.736363,0 1.482289,-0.89894 1.778747,-1.53011 h 0.01913 c -0.07651,0.15302 -0.124321,0.30603 -0.153011,0.45904 -0.124321,0.63116 0.01913,1.07107 0.602479,1.07107 0.344274,0 0.765053,-0.29646 1.071074,-0.65029 -0.03825,-0.11476 -0.09563,-0.22952 -0.1817,-0.30603 -0.210389,0.21039 -0.33471,0.29646 -0.468595,0.29646 -0.219952,0 -0.210389,-0.0861 0.05738,-1.43447 l 0.468595,-2.37167 h -0.870247 l -0.219953,1.15715 c -0.334711,1.75962 -1.243211,2.60118 -1.606611,2.60118 -0.334711,0 -0.401653,-0.49729 -0.162574,-1.46317 0.516411,-2.14214 0.497285,-2.20909 0.21039,-2.38122 -0.248642,0.14344 -0.985006,0.3634 -1.271901,0.39209 -0.05738,0.10519 -0.06694,0.24864 -0.04781,0.3634 0.631168,0 0.659858,0.0287 0.277331,1.55879 -0.258205,1.02326 -0.382526,2.23778 0.497285,2.23778 z"
         style="font-style:italic;font-variant:normal;font-weight:normal;font-stretch:normal;font-size:9.56316px;line-height:1.2;font-family:Vollkorn;-inkscape-font-specification:'Vollkorn, Italic';font-variant-ligatures:no-common-ligatures discretionary-ligatures;font-variant-caps:normal;font-variant-numeric:ordinal;font-variant-east-asian:normal;text-decoration:none;text-decoration-line:none;text-decoration-color:#000000;letter-spacing:-0.0125516px;word-spacing:0px;writing-mode:lr-tb;fill:#423a1d;fill-opacity:1;fill-rule:evenodd;stroke:none;stroke-width:0.181655;stroke-opacity:0.5"
         id="path2979" />
      <path
         d="m 56.177236,111.51 c -0.15301,0.15301 -0.382526,0.29646 -0.554663,0.29646 -0.133884,0 -0.153011,-0.1052 -0.09563,-0.92763 l 0.200827,-2.88808 h -0.707674 l -1.577922,3.0124 -0.420779,-2.81157 c -0.01913,-0.15301 -0.09563,-0.24864 -0.210389,-0.28689 -0.296458,0.14344 -1.051948,0.3634 -1.377095,0.39209 -0.05738,0.0956 -0.05738,0.22951 -0.05738,0.3634 0.640732,0 0.765053,0.0574 0.372963,1.20495 -0.430342,1.28147 -0.631168,1.72137 -1.138016,1.72137 -0.09563,0 -0.277332,-0.0191 -0.411216,-0.0765 -0.143447,0.21995 -0.200826,0.53553 -0.15301,0.70767 0.114758,0.14345 0.344273,0.22952 0.612042,0.22952 0.678984,0 0.870247,-0.53554 1.491853,-2.39079 l 0.200826,-0.71724 0.478158,3.02196 c 0.143448,0.0191 0.277332,0.01 0.39209,-0.0383 l 1.568358,-2.97415 -0.114758,1.62574 c -0.05738,0.832 -0.15301,1.48229 0.564227,1.48229 0.3634,0 0.669421,-0.16257 1.118889,-0.64073 -0.03825,-0.12432 -0.08607,-0.21039 -0.1817,-0.30602 z"
         style="font-style:italic;font-variant:normal;font-weight:normal;font-stretch:normal;font-size:9.56316px;line-height:1.2;font-family:Vollkorn;-inkscape-font-specification:'Vollkorn, Italic';font-variant-ligatures:no-common-ligatures discretionary-ligatures;font-variant-caps:normal;font-variant-numeric:ordinal;font-variant-east-asian:normal;text-decoration:none;text-decoration-line:none;text-decoration-color:#000000;letter-spacing:-0.0125516px;word-spacing:0px;writing-mode:lr-tb;fill:#423a1d;fill-opacity:1;fill-rule:evenodd;stroke:none;stroke-width:0.181655;stroke-opacity:0.5"
         id="path2981" />
      <path
         d="m 57.886037,112.45675 c 0.736364,0 1.48229,-0.89894 1.778748,-1.53011 h 0.01913 c -0.07651,0.15302 -0.124322,0.30603 -0.153011,0.45904 -0.124321,0.63116 0.01913,1.07107 0.602479,1.07107 0.344274,0 0.765053,-0.29646 1.071074,-0.65029 -0.03825,-0.11476 -0.09563,-0.22952 -0.1817,-0.30603 -0.21039,0.21039 -0.334711,0.29646 -0.468595,0.29646 -0.219953,0 -0.210389,-0.0861 0.05738,-1.43447 l 0.468595,-2.37167 h -0.870248 l -0.219952,1.15715 c -0.334711,1.75962 -1.243211,2.60118 -1.606611,2.60118 -0.334711,0 -0.401653,-0.49729 -0.162574,-1.46317 0.516411,-2.14214 0.497284,-2.20909 0.21039,-2.38122 -0.248643,0.14344 -0.985006,0.3634 -1.271901,0.39209 -0.05738,0.10519 -0.06694,0.24864 -0.04782,0.3634 0.631169,0 0.659859,0.0287 0.277332,1.55879 -0.258205,1.02326 -0.382526,2.23778 0.497284,2.23778 z"
         style="font-style:italic;font-variant:normal;font-weight:normal;font-stretch:normal;font-size:9.56316px;line-height:1.2;font-family:Vollkorn;-inkscape-font-specification:'Vollkorn, Italic';font-variant-ligatures:no-common-ligatures discretionary-ligatures;font-variant-caps:normal;font-variant-numeric:ordinal;font-variant-east-asian:normal;text-decoration:none;text-decoration-line:none;text-decoration-color:#000000;letter-spacing:-0.0125516px;word-spacing:0px;writing-mode:lr-tb;fill:#423a1d;fill-opacity:1;fill-rule:evenodd;stroke:none;stroke-width:0.181655;stroke-opacity:0.5"
         id="path2983" />
      <path
         d="m 69.221946,111.51 c -0.15301,0.15301 -0.382526,0.29646 -0.554663,0.29646 -0.133884,0 -0.153011,-0.1052 -0.09563,-0.92763 l 0.200827,-2.88808 h -0.707674 l -1.577921,3.0124 -0.420779,-2.81157 c -0.01913,-0.15301 -0.09563,-0.24864 -0.21039,-0.28689 -0.296458,0.14344 -1.051948,0.3634 -1.377095,0.39209 -0.05738,0.0956 -0.05738,0.22951 -0.05738,0.3634 0.640732,0 0.765053,0.0574 0.372963,1.20495 -0.430342,1.28147 -0.631168,1.72137 -1.138016,1.72137 -0.09563,0 -0.277331,-0.0191 -0.411216,-0.0765 -0.143447,0.21995 -0.200826,0.53553 -0.15301,0.70767 0.114758,0.14345 0.344274,0.22952 0.612042,0.22952 0.678984,0 0.870248,-0.53554 1.491853,-2.39079 l 0.200826,-0.71724 0.478158,3.02196 c 0.143448,0.0191 0.277332,0.01 0.39209,-0.0383 l 1.568358,-2.97415 -0.114758,1.62574 c -0.05738,0.832 -0.15301,1.48229 0.564227,1.48229 0.3634,0 0.669421,-0.16257 1.118889,-0.64073 -0.03825,-0.12432 -0.08607,-0.21039 -0.1817,-0.30602 z"
         style="font-style:italic;font-variant:normal;font-weight:normal;font-stretch:normal;font-size:9.56316px;line-height:1.2;font-family:Vollkorn;-inkscape-font-specification:'Vollkorn, Italic';font-variant-ligatures:no-common-ligatures discretionary-ligatures;font-variant-caps:normal;font-variant-numeric:ordinal;font-variant-east-asian:normal;text-decoration:none;text-decoration-line:none;text-decoration-color:#000000;letter-spacing:-0.0125516px;word-spacing:0px;writing-mode:lr-tb;fill:#423a1d;fill-opacity:1;fill-rule:evenodd;stroke:none;stroke-width:0.181655;stroke-opacity:0.5"
         id="path2985" />
      <path
         d="m 74.220477,111.51 c -0.153011,0.15301 -0.401653,0.29646 -0.535537,0.29646 -0.162574,0 -0.153011,-0.0287 0.01913,-0.91807 l 0.564226,-2.89764 h -0.870247 l -0.382527,1.95089 h -1.577921 l 0.267768,-1.41535 c 0.06694,-0.35384 0,-0.55466 -0.200826,-0.6216 -0.277332,0.14344 -0.994569,0.3634 -1.30059,0.39209 -0.05738,0.0956 -0.05738,0.22951 -0.05738,0.3634 0.612043,0 0.650295,0.0383 0.487722,0.92762 l -0.525974,2.78288 h 0.870247 l 0.372964,-1.97957 c 0.430342,-0.0287 1.138016,-0.0382 1.587484,-0.0382 l -0.105195,0.52597 c -0.191263,0.985 -0.296458,1.57792 0.459032,1.57792 0.344274,0 0.678984,-0.21039 1.099763,-0.64073 -0.02869,-0.12432 -0.0765,-0.21039 -0.172136,-0.30602 z"
         style="font-style:italic;font-variant:normal;font-weight:normal;font-stretch:normal;font-size:9.56316px;line-height:1.2;font-family:Vollkorn;-inkscape-font-specification:'Vollkorn, Italic';font-variant-ligatures:no-common-ligatures discretionary-ligatures;font-variant-caps:normal;font-variant-numeric:ordinal;font-variant-east-asian:normal;text-decoration:none;text-decoration-line:none;text-decoration-color:#000000;letter-spacing:-0.0125516px;word-spacing:0px;writing-mode:lr-tb;fill:#423a1d;fill-opacity:1;fill-rule:evenodd;stroke:none;stroke-width:0.181655;stroke-opacity:0.5"
         id="path2987" />
      <path
         d="m 76.417002,112.45675 c 1.157142,0 2.113458,-1.00413 2.352537,-2.3621 0.229516,-1.2719 -0.306021,-2.18996 -1.434474,-2.18996 -1.138016,0 -2.084769,0.91806 -2.342974,2.26646 -0.258205,1.30059 0.277332,2.2856 1.424911,2.2856 z m 0.124321,-0.45903 c -0.57379,0 -0.822432,-0.81287 -0.602479,-1.9222 0.200826,-1.01369 0.69811,-1.7118 1.252774,-1.7118 0.583352,0 0.831995,0.76505 0.631168,1.82656 -0.191263,1.03282 -0.717237,1.80744 -1.281463,1.80744 z"
         style="font-style:italic;font-variant:normal;font-weight:normal;font-stretch:normal;font-size:9.56316px;line-height:1.2;font-family:Vollkorn;-inkscape-font-specification:'Vollkorn, Italic';font-variant-ligatures:no-common-ligatures discretionary-ligatures;font-variant-caps:normal;font-variant-numeric:ordinal;font-variant-east-asian:normal;text-decoration:none;text-decoration-line:none;text-decoration-color:#000000;letter-spacing:-0.0125516px;word-spacing:0px;writing-mode:lr-tb;fill:#423a1d;fill-opacity:1;fill-rule:evenodd;stroke:none;stroke-width:0.181655;stroke-opacity:0.5"
         id="path2989" />
      <path
         d="m 80.478358,112.45675 c 0.564226,0 1.042384,-0.23908 1.386658,-0.65029 -0.03825,-0.11476 -0.143447,-0.24865 -0.248642,-0.30603 -0.286895,0.22952 -0.659858,0.35384 -0.9085,0.35384 -0.401653,0 -0.592916,-0.32515 -0.478158,-0.73636 0.258205,-0.91807 1.711805,-1.05195 1.950884,-2.01783 0.153011,-0.6216 -0.306021,-1.19539 -1.147579,-1.19539 -0.678984,0 -1.138016,0.37296 -1.386658,0.66942 0.02869,0.11476 0.143447,0.24864 0.248642,0.30602 0.239079,-0.26777 0.57379,-0.39209 0.841558,-0.39209 0.468595,0 0.564227,0.37296 0.506848,0.67898 -0.1817,0.94676 -1.797874,0.94676 -1.989137,2.00827 -0.105195,0.57379 0.239079,1.28146 1.224084,1.28146 z"
         style="font-style:italic;font-variant:normal;font-weight:normal;font-stretch:normal;font-size:9.56316px;line-height:1.2;font-family:Vollkorn;-inkscape-font-specification:'Vollkorn, Italic';font-variant-ligatures:no-common-ligatures discretionary-ligatures;font-variant-caps:normal;font-variant-numeric:ordinal;font-variant-east-asian:normal;text-decoration:none;text-decoration-line:none;text-decoration-color:#000000;letter-spacing:-0.0125516px;word-spacing:0px;writing-mode:lr-tb;fill:#423a1d;fill-opacity:1;fill-rule:evenodd;stroke:none;stroke-width:0.181655;stroke-opacity:0.5"
         id="path2991" />
      <path
         d="m 84.185862,112.45675 c 1.157142,0 2.113458,-1.00413 2.352537,-2.3621 0.229516,-1.2719 -0.306021,-2.18996 -1.434474,-2.18996 -1.138016,0 -2.084769,0.91806 -2.342974,2.26646 -0.258206,1.30059 0.277331,2.2856 1.424911,2.2856 z m 0.124321,-0.45903 c -0.57379,0 -0.822432,-0.81287 -0.602479,-1.9222 0.200826,-1.01369 0.69811,-1.7118 1.252774,-1.7118 0.583352,0 0.831994,0.76505 0.631168,1.82656 -0.191263,1.03282 -0.717237,1.80744 -1.281463,1.80744 z"
         style="font-style:italic;font-variant:normal;font-weight:normal;font-stretch:normal;font-size:9.56316px;line-height:1.2;font-family:Vollkorn;-inkscape-font-specification:'Vollkorn, Italic';font-variant-ligatures:no-common-ligatures discretionary-ligatures;font-variant-caps:normal;font-variant-numeric:ordinal;font-variant-east-asian:normal;text-decoration:none;text-decoration-line:none;text-decoration-color:#000000;letter-spacing:-0.0125516px;word-spacing:0px;writing-mode:lr-tb;fill:#423a1d;fill-opacity:1;fill-rule:evenodd;stroke:none;stroke-width:0.181655;stroke-opacity:0.5"
         id="path2993" />
      <path
         d="m 105.43364,111.50043 c -0.21039,0.21039 -0.3634,0.29646 -0.50685,0.29646 -0.14345,0 -0.17214,-0.0861 -0.0765,-0.57379 l 0.64073,-3.23235 h -0.87025 c -0.28689,1.46317 -0.94675,2.61075 -1.52054,2.61075 -0.3634,0 -0.43034,-0.45903 -0.23908,-1.29103 0.27733,-1.19539 0.27733,-1.22408 -0.0191,-1.40578 -0.24864,0.14344 -0.985,0.3634 -1.2719,0.39209 -0.0574,0.10519 -0.0669,0.24864 -0.0478,0.3634 0.64073,0 0.6503,0.0191 0.51641,0.60247 -0.19126,0.86069 -0.22951,2.04652 0.63117,2.04652 0.63117,0 1.24321,-0.6216 1.58749,-1.29103 h 0.0383 c -0.0669,0.15301 -0.14345,0.38253 -0.1817,0.58336 l -0.15302,0.82243 c -0.10519,0.57379 0.0191,1.03282 0.5451,1.03282 0.43035,0 0.81287,-0.31558 1.10933,-0.65029 -0.0383,-0.11476 -0.0956,-0.22952 -0.1817,-0.30603 z"
         style="font-style:italic;font-variant:normal;font-weight:normal;font-stretch:normal;font-size:9.56316px;line-height:1.2;font-family:Vollkorn;-inkscape-font-specification:'Vollkorn, Italic';font-variant-ligatures:no-common-ligatures discretionary-ligatures;font-variant-caps:normal;font-variant-numeric:ordinal;font-variant-east-asian:normal;text-decoration:none;text-decoration-line:none;text-decoration-color:#000000;letter-spacing:-0.0125516px;word-spacing:0px;writing-mode:lr-tb;fill:#423a1d;fill-opacity:1;fill-rule:evenodd;stroke:none;stroke-width:0.181655;stroke-opacity:0.5"
         id="path2995" />
      <path
         d="m 107.14245,112.45675 c 0.73636,0 1.48229,-0.89894 1.77875,-1.53011 h 0.0191 c -0.0765,0.15302 -0.12432,0.30603 -0.15301,0.45904 -0.12432,0.63116 0.0191,1.07107 0.60248,1.07107 0.34427,0 0.76505,-0.29646 1.07107,-0.65029 -0.0383,-0.11476 -0.0956,-0.22952 -0.1817,-0.30603 -0.21039,0.21039 -0.33471,0.29646 -0.46859,0.29646 -0.21996,0 -0.2104,-0.0861 0.0574,-1.43447 l 0.4686,-2.37167 h -0.87025 l -0.21995,1.15715 c -0.33471,1.75962 -1.24321,2.60118 -1.60661,2.60118 -0.33471,0 -0.40165,-0.49729 -0.16258,-1.46317 0.51641,-2.14214 0.49729,-2.20909 0.21039,-2.38122 -0.24864,0.14344 -0.985,0.3634 -1.2719,0.39209 -0.0574,0.10519 -0.0669,0.24864 -0.0478,0.3634 0.63117,0 0.65986,0.0287 0.27734,1.55879 -0.25821,1.02326 -0.38253,2.23778 0.49728,2.23778 z"
         style="font-style:italic;font-variant:normal;font-weight:normal;font-stretch:normal;font-size:9.56316px;line-height:1.2;font-family:Vollkorn;-inkscape-font-specification:'Vollkorn, Italic';font-variant-ligatures:no-common-ligatures discretionary-ligatures;font-variant-caps:normal;font-variant-numeric:ordinal;font-variant-east-asian:normal;text-decoration:none;text-decoration-line:none;text-decoration-color:#000000;letter-spacing:-0.0125516px;word-spacing:0px;writing-mode:lr-tb;fill:#423a1d;fill-opacity:1;fill-rule:evenodd;stroke:none;stroke-width:0.181655;stroke-opacity:0.5"
         id="path2997" />
      <path
         d="m 116.6548,112.45675 c 0.41122,0 0.75549,-0.19126 1.15715,-0.64073 -0.0191,-0.12432 -0.067,-0.21995 -0.16258,-0.30602 -0.22952,0.21039 -0.37297,0.28689 -0.54511,0.28689 -0.17212,0 -0.20081,-0.0765 0.01,-0.88937 l 0.28689,-1.11889 c 0.29646,-1.15714 0.0382,-1.88394 -0.60248,-1.88394 -0.71724,0 -1.57793,0.91806 -1.83613,1.49185 l -0.14344,0.31558 h -0.01 c 0.0956,-0.23908 0.17214,-0.48772 0.21039,-0.70767 0.12432,-0.77462 -0.28689,-1.0902 -0.69811,-1.0902 -0.69811,0 -1.51098,0.91806 -1.75962,1.48229 l -0.14345,0.31558 h -0.01 c 0.13388,-0.31558 0.23908,-0.64073 0.34427,-1.18583 0.0574,-0.35384 0,-0.55466 -0.20082,-0.6216 -0.27733,0.14344 -0.97545,0.3634 -1.28147,0.39209 -0.0574,0.10519 -0.0765,0.24864 -0.0574,0.3634 0.61205,0 0.65986,0.0383 0.49729,0.92762 l -0.52598,2.78288 h 0.87025 l 0.23908,-1.24321 c 0.31559,-1.61617 1.1954,-2.52467 1.65443,-2.52467 0.2582,0 0.34427,0.28689 0.0669,1.61617 l -0.4399,2.15171 h 0.86068 l 0.23908,-1.24321 c 0.33471,-1.67355 1.26234,-2.52467 1.70224,-2.52467 0.27733,0 0.32515,0.34427 0.12432,1.22408 l -0.24864,1.0902 c -0.23908,1.0902 -0.21995,1.53967 0.40165,1.53967 z"
         style="font-style:italic;font-variant:normal;font-weight:normal;font-stretch:normal;font-size:9.56316px;line-height:1.2;font-family:Vollkorn;-inkscape-font-specification:'Vollkorn, Italic';font-variant-ligatures:no-common-ligatures discretionary-ligatures;font-variant-caps:normal;font-variant-numeric:ordinal;font-variant-east-asian:normal;text-decoration:none;text-decoration-line:none;text-decoration-color:#000000;letter-spacing:-0.0125516px;word-spacing:0px;writing-mode:lr-tb;fill:#423a1d;fill-opacity:1;fill-rule:evenodd;stroke:none;stroke-width:0.181655;stroke-opacity:0.5"
         id="path2999" />
      <path
         d="m 119.14779,107.28308 c 0.27733,0 0.47814,-0.20083 0.53552,-0.46859 0.0669,-0.31559 -0.0765,-0.56423 -0.43989,-0.56423 -0.28691,0 -0.44948,0.16257 -0.50685,0.42078 -0.0765,0.32515 0.0765,0.61204 0.41122,0.61204 z m 1.49184,-0.01 c 0.27734,0 0.47817,-0.17214 0.53554,-0.48772 0.0669,-0.37297 -0.13388,-0.53554 -0.43035,-0.53554 -0.2582,0 -0.46859,0.12432 -0.53553,0.44947 -0.0669,0.33471 0.0956,0.57379 0.43034,0.57379 z m -1.56835,5.18323 c 0.35384,0 0.71724,-0.23908 1.09019,-0.64073 -0.0191,-0.13389 -0.0765,-0.23908 -0.17214,-0.30602 -0.19126,0.19126 -0.37296,0.27733 -0.49728,0.27733 -0.1817,0 -0.22951,-0.11476 -0.0478,-0.73636 l 0.52599,-1.84569 c 0.21995,-0.78418 0.13388,-1.13802 -0.25822,-1.30059 -0.22951,0.14344 -0.79374,0.35383 -1.09976,0.39209 -0.0478,0.10519 -0.0669,0.21995 -0.0574,0.3634 0.63117,0 0.65986,0.0765 0.38253,1.04238 l -0.39208,1.3771 c -0.22952,0.82243 -0.11477,1.37709 0.52597,1.37709 z"
         style="font-style:italic;font-variant:normal;font-weight:normal;font-stretch:normal;font-size:9.56316px;line-height:1.2;font-family:Vollkorn;-inkscape-font-specification:'Vollkorn, Italic';font-variant-ligatures:no-common-ligatures discretionary-ligatures;font-variant-caps:normal;font-variant-numeric:ordinal;font-variant-east-asian:normal;text-decoration:none;text-decoration-line:none;text-decoration-color:#000000;letter-spacing:-0.0125516px;word-spacing:0px;writing-mode:lr-tb;fill:#423a1d;fill-opacity:1;fill-rule:evenodd;stroke:none;stroke-width:0.181655;stroke-opacity:0.5"
         id="path3001" />
      <path
         id="path2824"
         style="font-style:italic;font-variant:normal;font-weight:normal;font-stretch:normal;font-size:9.56316px;line-height:1.2;font-family:Vollkorn;-inkscape-font-specification:'Vollkorn, Italic';font-variant-ligatures:no-common-ligatures discretionary-ligatures;font-variant-caps:normal;font-variant-numeric:ordinal;font-variant-east-asian:normal;text-decoration:none;text-decoration-line:none;text-decoration-color:#000000;letter-spacing:-0.0125516px;word-spacing:0px;writing-mode:lr-tb;fill:#423a1d;fill-opacity:1;fill-rule:evenodd;stroke:none;stroke-width:0.181655;stroke-opacity:0.5"
         d="m 125.00052,107.39559 h -0.551 q 0.0374,-0.72378 -0.72378,-0.72378 -0.4296,0 -0.90122,0.21947 -0.75179,0.35021 -1.41019,0.45761 l 0.1214,-0.62571 q 0.68642,-0.18211 1.06932,-0.37823 0.61639,-0.31286 1.20007,-0.31286 1.21407,0 1.21407,1.088 0,0.13074 -0.0187,0.2755 z m -3.31192,5.06116 c 0.73636,0 1.48229,-0.89894 1.77874,-1.53011 h 0.0191 c -0.0765,0.15302 -0.12432,0.30603 -0.15301,0.45904 -0.12432,0.63116 0.0191,1.07107 0.60248,1.07107 0.34427,0 0.76505,-0.29646 1.07107,-0.65029 -0.0383,-0.11476 -0.0956,-0.22952 -0.1817,-0.30603 -0.21039,0.21039 -0.33471,0.29646 -0.46859,0.29646 -0.21995,0 -0.2104,-0.0861 0.0574,-1.43447 l 0.46859,-2.37167 h -0.87025 l -0.21995,1.15715 c -0.33471,1.75962 -1.24321,2.60118 -1.60661,2.60118 -0.33471,0 -0.40165,-0.49729 -0.16257,-1.46317 0.5164,-2.14214 0.49728,-2.20909 0.21039,-2.38122 -0.24865,0.14344 -0.98501,0.3634 -1.2719,0.39209 -0.0574,0.10519 -0.067,0.24864 -0.0478,0.3634 0.63117,0 0.65986,0.0287 0.27733,1.55879 -0.2582,1.02326 -0.38252,2.23778 0.49729,2.23778 z" />
      <path
         id="path2860"
         style="fill:#c94523;fill-opacity:1;fill-rule:evenodd;stroke:#423a1d;stroke-width:0.275004;stroke-miterlimit:4;stroke-dasharray:none;stroke-opacity:1;stop-color:#000000"
         d="m 100.68973,106.50916 c -0.34016,-0.0523 -0.66198,-0.0326 -0.988799,-0.003 -0.172224,0.67008 -0.469066,1.164 -0.879835,1.49697 0.511543,0.0192 1.114759,0.11979 1.420094,0.44455 0.29203,-0.45145 0.46741,-1.23774 0.44854,-1.93835 z"
         sodipodi:nodetypes="ccccc" />
      <path
         id="path2862"
         style="font-variation-settings:normal;opacity:1;vector-effect:none;fill:#c94523;fill-opacity:1;fill-rule:evenodd;stroke:#423a1d;stroke-width:0.275004;stroke-linecap:butt;stroke-linejoin:miter;stroke-miterlimit:4;stroke-dasharray:none;stroke-dashoffset:0;stroke-opacity:1;stop-color:#000000;stop-opacity:1"
         d="m 97.858701,112.31791 c 0.206679,0.32971 0.498144,0.81937 0.421871,1.46644 0.657083,-0.0636 1.122107,0.0903 1.640383,-0.15216 0.155525,-0.80808 -0.117988,-1.28541 -0.20836,-1.84557 -0.615811,0.44002 -1.235803,0.53281 -1.853894,0.53129 z"
         sodipodi:nodetypes="ccccc" />
      <path
         id="path2864"
         style="fill:#c94523;fill-opacity:1;fill-rule:evenodd;stroke:#423a1d;stroke-width:0.275004;stroke-miterlimit:4;stroke-dasharray:none;stroke-opacity:1;stop-color:#000000"
         d="m 94.492418,115.68876 c -0.158212,0.15593 -0.338831,0.28053 -0.539726,0.3759 -0.03684,0.38209 -0.13242,0.8497 -0.07475,1.08369 0.08423,0.34182 1.02886,0.28914 1.243275,-0.0392 0.118585,-0.18159 0.17281,-0.51962 0.144742,-0.88647 -0.349979,-0.088 -0.609082,-0.26425 -0.773536,-0.53389 z" />
      <path
         id="path2866"
         style="fill:#c94523;fill-opacity:1;fill-rule:evenodd;stroke:#423a1d;stroke-width:0.275004;stroke-miterlimit:4;stroke-dasharray:none;stroke-opacity:1;stop-color:#000000"
         d="m 90.322236,116.2709 c 0.197816,1.49396 1.493822,1.3801 1.861703,-0.0753 -0.299508,-0.0954 -0.524385,-0.2635 -0.67277,-0.50685 -0.314973,0.30812 -0.711482,0.49631 -1.188933,0.58214 z"
         sodipodi:nodetypes="cccc" />
      <path
         id="path2870"
         style="fill:#c94523;fill-opacity:1;fill-rule:evenodd;stroke:#423a1d;stroke-width:0.275004;stroke-miterlimit:4;stroke-dasharray:none;stroke-opacity:1;stop-color:#000000"
         d="m 98.103492,104.07773 c -0.244332,-0.60853 -0.372532,-1.04895 -0.765056,-1.46223 -1.075341,0.14282 -1.382488,0.72972 -2.080699,1.45695 0.647493,-5.5e-4 1.093092,0.18148 1.365221,0.57152 0.390138,-0.34227 0.878985,-0.53846 1.480534,-0.56624 z"
         sodipodi:nodetypes="ccccc" />
      <path
         id="path2858"
         style="fill:#c94523;fill-opacity:1;fill-rule:evenodd;stroke:#423a1d;stroke-width:0.275004;stroke-miterlimit:4;stroke-dasharray:none;stroke-opacity:1;stop-color:#000000"
         d="m 93.813252,102.48986 c -0.61646,0.33662 -0.990946,0.89849 -1.226842,1.59956 0.498492,0.0537 0.856512,0.24687 1.06938,0.58321 0.311672,-0.30835 0.703151,-0.49696 1.173292,-0.56783 -0.458471,-0.40831 -0.710421,-0.96181 -1.01583,-1.61494 z" />
      <path
         id="path2856"
         style="fill:#c94523;fill-opacity:1;fill-rule:evenodd;stroke:#423a1d;stroke-width:0.275004;stroke-miterlimit:4;stroke-dasharray:none;stroke-opacity:1;stop-color:#000000"
         d="m 87.826962,106.41003 c 0.03302,0.67296 0.258581,1.32178 0.636219,1.95108 0.09797,0.001 0.178538,-0.004 0.268802,-0.006 0.537119,-0.27517 0.95832,-0.34503 1.477618,-0.34196 -0.350158,-0.36657 -0.446112,-0.95707 -0.289477,-1.77081 -0.690212,-0.0577 -1.478325,0.0348 -2.093162,0.16753 z"
         sodipodi:nodetypes="cccccc" />
      <path
         id="path2868"
         style="fill:#c94523;fill-opacity:1;fill-rule:evenodd;stroke:#423a1d;stroke-width:0.275004;stroke-miterlimit:4;stroke-dasharray:none;stroke-opacity:1;stop-color:#000000"
         d="m 88.326931,112.20068 c -0.372481,0.0613 -0.673954,0.13558 -0.82179,0.30433 -0.07233,0.49439 -0.06872,0.59289 0.148452,0.91033 0.152801,0.0883 0.567305,0.002 0.972884,-0.10233 0.165763,-0.38465 0.55257,-0.69014 0.821,-0.95585 -0.33857,-0.0347 -0.851058,-0.0385 -1.120546,-0.15648 z"
         sodipodi:nodetypes="cccccc" />
      <path
         id="path2722"
         style="font-style:italic;font-variant:normal;font-weight:normal;font-stretch:normal;font-size:9.56316px;line-height:1.2;font-family:Vollkorn;-inkscape-font-specification:'Vollkorn, Italic';font-variant-ligatures:no-common-ligatures discretionary-ligatures;font-variant-caps:normal;font-variant-numeric:ordinal;font-variant-east-asian:normal;text-decoration:none;text-decoration-line:none;text-decoration-color:#000000;letter-spacing:-0.0125516px;word-spacing:0px;writing-mode:lr-tb;fill:#423a1d;fill-opacity:1;fill-rule:evenodd;stroke:none;stroke-width:0.181655;stroke-opacity:0.5"
         d="m 100.61833,108.47515 c -0.26794,-0.38055 -0.734481,-0.57064 -1.399211,-0.57064 l -0.22653,0.0141 c 0.52112,-0.37573 0.86641,-0.99934 1.036141,-1.87122 0.14533,-0.74664 0.0842,-1.31022 -0.183711,-1.69077 -0.26793,-0.38054 -0.73448,-0.57063 -1.39923,-0.57063 -0.70189,0 -1.2642,0.20902 -1.6875,0.62645 -0.0115,-0.0184 -0.0211,-0.0382 -0.0335,-0.0558 -0.26793,-0.38054 -0.73448,-0.57063 -1.39922,-0.57063 -0.70329,0 -1.26663,0.20955 -1.69022,0.62862 -0.26525,-0.41907 -0.74237,-0.62862 -1.4312,-0.62854 -1.3584,9e-5 -2.18412,0.75377 -2.47763,2.26149 -0.16692,0.85743 -0.0663,1.47883 0.30184,1.86418 l -0.17233,-0.007 c -1.35838,0 -2.18411,0.75422 -2.47761,2.26193 -0.14536,0.74664 -0.0901,1.31469 0.16636,1.70485 0.26124,0.39019 0.72417,0.58527 1.38892,0.58527 0.0709,-8.5e-4 0.14093,-0.003 0.21135,-0.007 -0.51629,0.37572 -0.85699,0.98712 -1.02204,1.83491 -0.14534,0.74664 -0.0901,1.31522 0.16637,1.70539 0.26122,0.39018 0.72417,0.58527 1.38891,0.58527 0.71291,0 1.28403,-0.20954 1.71245,-0.62861 0.2556,0.41907 0.72495,0.62861 1.40897,0.62861 0.718,0 1.28756,-0.21093 1.71136,-0.62861 0.2556,0.41907 0.72495,0.62861 1.40897,0.62861 1.37267,0 2.20791,-0.76349 2.50525,-2.29039 0.16489,-0.84778 0.0627,-1.45954 -0.30729,-1.83531 0.0601,0.005 0.11457,0.007 0.17932,0.007 1.37283,-6e-5 2.206741,-0.764 2.504721,-2.29074 0.14534,-0.74667 0.0842,-1.31025 -0.18371,-1.69079 z m -9.979951,-0.98976 c -0.11418,-0.27939 -0.10512,-0.75904 0.0271,-1.43823 0.13129,-0.67438 0.30726,-1.14627 0.52837,-1.41602 0.2211,-0.26975 0.51728,-0.40481 0.88826,-0.40481 0.3806,0 0.63496,0.14005 0.76361,0.41943 0.12894,0.27939 0.12971,0.74629 0.002,1.4014 -0.12781,0.65511 -0.31169,1.12975 -0.55208,1.4236 -0.23464,0.28901 -0.5447,0.43353 -0.92281,0.43353 -0.37811,0 -0.62025,-0.13952 -0.73445,-0.4189 z m 4.56509,-3.25906 c 0.38063,0 0.635,0.14005 0.76364,0.41943 0.12894,0.27939 0.1297,0.74629 0.002,1.4014 -0.1278,0.65511 -0.31178,1.12928 -0.55207,1.4236 -0.23464,0.28901 -0.5447,0.43353 -0.93006,0.43353 -0.3709,0 -0.61304,-0.13952 -0.72724,-0.4189 -0.11418,-0.27939 -0.10512,-0.75904 0.0373,-1.49243 0.14087,-0.67558 0.31337,-1.11634 0.53024,-1.37646 0.21688,-0.26012 0.50999,-0.39017 0.87619,-0.39017 z m 3.88397,0.41948 c 0.12904,0.27939 0.12972,0.74629 0.002,1.4014 -0.12781,0.65511 -0.31214,1.12928 -0.55207,1.4236 -0.23462,0.28901 -0.5447,0.43353 -0.93006,0.43353 -0.37091,0 -0.61304,-0.13952 -0.72724,-0.4189 -0.11308,-0.27675 -0.10424,-0.75133 0.0399,-1.50218 0.13886,-0.66585 0.31137,-1.10661 0.52577,-1.36672 0.21919,-0.26013 0.51229,-0.39018 0.87827,-0.39017 0.38042,1e-5 0.63478,0.14006 0.76343,0.41944 z m -7.90864,1.36562 c -0.03,0.15415 -3.6e-4,0.28644 0.0888,0.39722 0.095,0.10599 0.22424,0.15878 0.38803,0.15878 0.15895,0 0.30648,-0.0528 0.44273,-0.15878 0.13718,-0.11078 0.22092,-0.24307 0.25091,-0.39722 0.0309,-0.15895 -8e-4,-0.29401 -0.0948,-0.4048 -0.0941,-0.11079 -0.22038,-0.16638 -0.37935,-0.16638 -0.1638,0 -0.31425,0.0556 -0.44898,0.16638 -0.13473,0.11079 -0.21638,0.24585 -0.24734,0.4048 z m 3.1214,0 c -0.03,0.15415 -3.5e-4,0.28644 0.089,0.39722 0.095,0.10599 0.22423,0.15878 0.38801,0.15878 0.15895,0 0.3065,-0.0528 0.44274,-0.15878 0.13718,-0.11078 0.22091,-0.24307 0.2509,-0.39722 0.031,-0.15895 -7.9e-4,-0.29401 -0.0948,-0.4048 -0.0941,-0.11079 -0.22038,-0.16638 -0.37939,-0.16638 -0.16385,0 -0.3143,0.0556 -0.44908,0.16638 -0.13478,0.11079 -0.21641,0.24585 -0.24738,0.4048 z m 3.12034,0 c -0.03,0.15415 -3.8e-4,0.28644 0.0888,0.39722 0.095,0.10602 0.22424,0.15878 0.38801,0.15878 0.15897,0 0.3065,-0.0528 0.44274,-0.15878 0.13719,-0.11078 0.22093,-0.24307 0.25092,-0.39722 0.031,-0.15895 -7.8e-4,-0.29401 -0.0948,-0.4048 -0.0941,-0.11081 -0.22038,-0.16638 -0.37934,-0.16638 -0.16381,0 -0.31426,0.0556 -0.44903,0.16638 -0.13476,0.11079 -0.21637,0.24585 -0.2473,0.4048 z m -7.68602,2.33348 c 0.41434,0 0.67273,0.15673 0.77556,0.46983 0.10835,0.3083 0.10505,0.7585 -0.0105,1.35098 -0.11722,0.60214 -0.29083,1.06234 -0.52133,1.38025 -0.22557,0.31778 -0.54573,0.47689 -0.95998,0.47689 -0.37087,-1.4e-4 -0.61338,-0.13966 -0.72752,-0.4189 -0.11417,-0.27938 -0.1051,-0.75904 0.0266,-1.43583 0.13175,-0.67678 0.30827,-1.14867 0.5294,-1.41841 0.22113,-0.26975 0.51676,-0.40481 0.88777,-0.40481 z m 1.70476,1.82081 c 0.13128,-0.67437 0.3078,-1.14626 0.5289,-1.41601 0.22111,-0.26974 0.51674,-0.4048 0.88774,-0.4048 0.41435,0 0.67274,0.15673 0.77557,0.46983 0.10835,0.3083 0.10505,0.7585 -0.0105,1.35098 -0.11722,0.60214 -0.29085,1.06234 -0.52133,1.38025 -0.22557,0.31778 -0.54573,0.47689 -0.95998,0.47689 -0.37087,-1.4e-4 -0.61338,-0.13966 -0.72754,-0.41897 -0.11415,-0.27931 -0.10509,-0.75897 0.0271,-1.43817 z m 3.09384,1.43821 c -0.11326,-0.2842 -0.10424,-0.76385 0.0271,-1.43824 0.13127,-0.67437 0.30725,-1.14626 0.52836,-1.41601 0.22109,-0.26974 0.51728,-0.4048 0.88825,-0.4048 0.3806,0 0.63494,0.14005 0.76361,0.41943 0.12893,0.27938 0.1297,0.74627 0.002,1.40138 -0.12781,0.65511 -0.31075,1.1299 -0.55208,1.4236 -0.23461,0.28902 -0.54415,0.43354 -0.92226,0.43354 -0.37811,0 -0.62078,-0.13951 -0.73498,-0.4189 z m 5.32763,-2.83966 c 0.12905,0.27938 0.1297,0.74627 0.002,1.40138 -0.12782,0.65512 -0.31169,1.12977 -0.55194,1.4236 -0.23451,0.28902 -0.54403,0.43354 -0.92938,0.43354 -0.37091,0 -0.61358,-0.13951 -0.72779,-0.4189 -0.11204,-0.28125 -0.1035,-0.75538 0.0284,-1.44272 0.13341,-0.67796 0.30759,-1.1451 0.52645,-1.41153 0.22097,-0.26975 0.51714,-0.4048 0.89319,-0.4048 0.37605,0 0.63042,0.14005 0.75907,0.41943 z m -11.03007,1.36562 c -0.03,0.15413 -3.4e-4,0.28642 0.0889,0.39723 0.095,0.10596 0.22423,0.15877 0.38802,0.15877 0.15895,0 0.30649,-0.0528 0.44274,-0.15877 0.13718,-0.11081 0.22092,-0.2431 0.25091,-0.39723 0.0309,-0.15897 -8.2e-4,-0.29402 -0.0948,-0.4048 -0.0941,-0.11081 -0.22038,-0.16637 -0.3794,-0.16637 -0.16383,0 -0.3143,0.0556 -0.44903,0.16637 -0.13473,0.11078 -0.21636,0.24583 -0.24734,0.4048 z m 3.12142,0 c -0.03,0.15413 -3.5e-4,0.28642 0.0888,0.39723 0.095,0.10596 0.22422,0.15877 0.388,0.15877 0.15896,0 0.3065,-0.0528 0.44274,-0.15877 0.13719,-0.11081 0.22091,-0.2431 0.25091,-0.39723 0.031,-0.15897 -8e-4,-0.29402 -0.0948,-0.4048 -0.0941,-0.11081 -0.22038,-0.16637 -0.37935,-0.16637 -0.16377,0 -0.31424,0.0556 -0.44897,0.16637 -0.13473,0.11078 -0.21636,0.24583 -0.24733,0.4048 z m 3.12141,0 c -0.03,0.15413 -3.5e-4,0.28642 0.0889,0.39723 0.095,0.10596 0.22422,0.15877 0.388,0.15877 0.15896,0 0.3065,-0.0528 0.44274,-0.15877 0.13719,-0.11081 0.22091,-0.2431 0.25091,-0.39723 0.0309,-0.15897 -8e-4,-0.29402 -0.0948,-0.4048 -0.0941,-0.11081 -0.22038,-0.16637 -0.3794,-0.16637 -0.16383,0 -0.31429,0.0556 -0.44902,0.16637 -0.13472,0.11078 -0.21636,0.24583 -0.24733,0.4048 z m 3.12033,0 c -0.03,0.15414 -3.7e-4,0.28643 0.0889,0.39723 0.095,0.10599 0.22422,0.15877 0.38801,0.15877 0.15895,0 0.30649,-0.0528 0.44274,-0.15877 0.13719,-0.1108 0.22091,-0.24309 0.2509,-0.39723 0.0311,-0.15897 -7.6e-4,-0.29401 -0.0948,-0.4048 -0.0941,-0.11083 -0.22039,-0.16637 -0.37935,-0.16637 -0.16378,0 -0.31423,0.0556 -0.44904,0.16638 -0.13481,0.11078 -0.21643,0.24582 -0.24736,0.40479 z m -9.15896,5.59253 c -0.11417,-0.27939 -0.10512,-0.75904 0.0271,-1.43824 0.13129,-0.67437 0.30727,-1.14626 0.52837,-1.41601 0.22111,-0.26976 0.51729,-0.4048 0.88825,-0.4048 0.3806,0 0.63495,0.14004 0.76362,0.41943 0.12892,0.27939 0.12985,0.74628 0.002,1.40138 -0.11748,0.60213 -0.29101,1.06239 -0.52172,1.38024 -0.22581,0.31793 -0.54614,0.4769 -0.9604,0.4769 -0.37089,0 -0.61302,-0.13953 -0.72722,-0.4189 z m 3.12142,0 c -0.11325,-0.28421 -0.10413,-0.76386 0.0271,-1.43824 0.12753,-0.6551 0.2999,-1.12199 0.51806,-1.40138 0.223,-0.27939 0.52276,-0.41943 0.89855,-0.41943 0.38061,0 0.63495,0.14004 0.76362,0.41943 0.12892,0.27939 0.12973,0.74653 0.002,1.40138 -0.12779,0.65512 -0.31169,1.12977 -0.55207,1.4236 -0.23463,0.28903 -0.5447,0.43354 -0.93004,0.43354 -0.37089,0 -0.61302,-0.13953 -0.72722,-0.4189 z m 3.84749,0.41894 c -0.37091,0 -0.61302,-0.13953 -0.72723,-0.4189 -0.11205,-0.28124 -0.10351,-0.75537 0.0284,-1.44128 0.12976,-0.65921 0.30061,-1.12152 0.51683,-1.39841 0.22298,-0.27938 0.52218,-0.41943 0.89851,-0.4194 0.38055,4e-5 0.6349,0.14008 0.76379,0.41947 0.1289,0.27939 0.12954,0.74627 0.002,1.40138 -0.12774,0.65511 -0.31164,1.12977 -0.54926,1.4212 -0.23761,0.29143 -0.54769,0.43594 -0.93304,0.43594 z m -6.42852,-1.8929 c -0.03,0.15414 -3.6e-4,0.28644 0.089,0.39721 0.095,0.10598 0.22423,0.15879 0.388,0.15879 0.15897,0 0.30651,-0.0528 0.44275,-0.15879 0.13719,-0.11077 0.22091,-0.24307 0.25091,-0.39721 0.0309,-0.15896 -8.1e-4,-0.29401 -0.0948,-0.40482 -0.0941,-0.11077 -0.22039,-0.16636 -0.3794,-0.16636 -0.16383,0 -0.3143,0.0556 -0.44908,0.16638 -0.13477,0.11079 -0.21641,0.24584 -0.24738,0.4048 z m 3.12141,0 c -0.03,0.15414 -3.6e-4,0.28644 0.089,0.39721 0.095,0.10598 0.22423,0.15879 0.388,0.15879 0.15897,0 0.30651,-0.0528 0.44275,-0.15879 0.13719,-0.11077 0.22091,-0.24307 0.25091,-0.39721 0.031,-0.15896 -8e-4,-0.29401 -0.0948,-0.40482 -0.0941,-0.11077 -0.22039,-0.16636 -0.3794,-0.16636 -0.16383,0 -0.3143,0.0556 -0.44908,0.16638 -0.13477,0.11079 -0.21641,0.24584 -0.24738,0.4048 z m 3.12033,0 c -0.03,0.15414 -3.7e-4,0.28644 0.089,0.39721 0.095,0.10602 0.22423,0.15879 0.38801,0.15879 0.15896,0 0.30649,-0.0528 0.44275,-0.15879 0.13719,-0.11077 0.22091,-0.24307 0.2509,-0.39721 0.0311,-0.15896 -7.6e-4,-0.29401 -0.0948,-0.40482 -0.0941,-0.11079 -0.22039,-0.16636 -0.3794,-0.16636 -0.16384,0 -0.3143,0.0556 -0.44911,0.16638 -0.1348,0.11079 -0.21641,0.24584 -0.24735,0.4048 z"
         sodipodi:nodetypes="sccsssccsccsccscccscscscsccccsccccscccccccccccccsccsscccsssscccccssscsscssscscsscsscssscccscssscccsscssccscscssccccsscsccscsccsccsssscsccsscsccccsscsssccsscscsccssccccscssccccsscccsccsccsscccccssscccccssssccccss" />
      <path
         d="m 97.462019,102.03401 h -0.551 q 0.0374,-0.72378 -0.72378,-0.72378 -0.42959,0 -0.90121,0.21947 -0.75179,0.35021 -1.41019,0.45761 l 0.1214,-0.62571 q 0.68642,-0.18211 1.06932,-0.37823 0.61638,-0.31286 1.20007,-0.31286 1.21407,0 1.21407,1.088 0,0.13074 -0.0187,0.2755 z"
         style="font-style:italic;font-variant:normal;font-weight:normal;font-stretch:normal;font-size:9.56316px;line-height:1.2;font-family:Vollkorn;-inkscape-font-specification:'Vollkorn, Italic';font-variant-ligatures:no-common-ligatures discretionary-ligatures;font-variant-caps:normal;font-variant-numeric:ordinal;font-variant-east-asian:normal;text-decoration:none;text-decoration-line:none;text-decoration-color:#000000;letter-spacing:-0.0125516px;word-spacing:0px;writing-mode:lr-tb;fill:#423a1d;fill-opacity:1;fill-rule:evenodd;stroke:none;stroke-width:0.181655;stroke-opacity:0.5"
         id="path2836" />
    </g>
    <text
       xml:space="preserve"
       style="font-style:normal;font-variant:normal;font-weight:normal;font-stretch:normal;font-size:3.26778px;line-height:1.2;font-family:'Roboto Mono';-inkscape-font-specification:'Roboto Mono, Normal';font-variant-ligatures:no-common-ligatures discretionary-ligatures;font-variant-caps:normal;font-variant-numeric:ordinal;font-variant-east-asian:normal;text-decoration:none;text-decoration-line:none;text-decoration-color:#000000;letter-spacing:-0.0142965px;word-spacing:0px;writing-mode:lr-tb;display:inline;fill:#423a1d;fill-opacity:1;fill-rule:evenodd;stroke-width:0.13015266;stroke-opacity:0.5;stop-color:#000000;font-variation-settings:normal;opacity:1;vector-effect:none;stroke:none;stroke-linecap:butt;stroke-linejoin:miter;stroke-miterlimit:4;stroke-dasharray:none;stroke-dashoffset:0;stop-opacity:1;"
       x="79.762222"
       y="101.02744"
       id="text905"><tspan
         sodipodi:role="line"
         id="tspan903"
         x="79.762222"
         y="101.02744"
         style="font-style:normal;font-variant:normal;font-weight:normal;font-stretch:normal;font-size:3.26778px;font-family:'Roboto Mono';-inkscape-font-specification:'Roboto Mono, Normal';font-variant-ligatures:no-common-ligatures discretionary-ligatures;font-variant-caps:normal;font-variant-numeric:ordinal;font-variant-east-asian:normal;fill:#423a1d;fill-opacity:1;stroke-width:0.13015266;font-variation-settings:normal;vector-effect:none;stroke:none;stroke-linecap:butt;stroke-linejoin:miter;stroke-miterlimit:4;stroke-dasharray:none;stroke-dashoffset:0;stroke-opacity:0.5;stop-color:#000000;stop-opacity:1;">U+A66E CYRILLIC LETTER MULTIOCULAR O</tspan></text>
  </g>
</svg>
