<?xml version="1.0" encoding="UTF-8" standalone="no"?>
<svg
   xmlns:dc="http://purl.org/dc/elements/1.1/"
   xmlns:cc="http://creativecommons.org/ns#"
   xmlns:rdf="http://www.w3.org/1999/02/22-rdf-syntax-ns#"
   xmlns:svg="http://www.w3.org/2000/svg"
   xmlns="http://www.w3.org/2000/svg"
   xmlns:xlink="http://www.w3.org/1999/xlink"
   xmlns:sodipodi="http://sodipodi.sourceforge.net/DTD/sodipodi-0.dtd"
   xmlns:inkscape="http://www.inkscape.org/namespaces/inkscape"
   width="55mm"
   height="55mm"
   viewBox="0 0 55 55"
   version="1.1"
   id="svg901"
   inkscape:version="1.0.2 (e86c870879, 2021-01-15)"
   sodipodi:docname="multiocular-o-small.svg"
   inkscape:export-xdpi="200"
   inkscape:export-ydpi="200">
  <defs
     id="defs895">
    <linearGradient
       inkscape:collect="always"
       xlink:href="#linearGradient3572"
       id="linearGradient3574"
       x1="130.70494"
       y1="64.999474"
       x2="130.70494"
       y2="61.446342"
       gradientUnits="userSpaceOnUse"
       gradientTransform="matrix(0.73229545,0,0,0.99843033,-67.803511,218.43277)" />
    <linearGradient
       inkscape:collect="always"
       id="linearGradient3572">
      <stop
         style="stop-color:#ffffff;stop-opacity:0.63312316"
         offset="0"
         id="stop3568" />
      <stop
         style="stop-color:#ffffff;stop-opacity:0;"
         offset="1"
         id="stop3570" />
    </linearGradient>
  </defs>
  <sodipodi:namedview
     id="base"
     pagecolor="#ffffff"
     bordercolor="#666666"
     borderopacity="1.0"
     inkscape:pageopacity="0.0"
     inkscape:pageshadow="2"
     inkscape:zoom="2.6794541"
     inkscape:cx="109.00481"
     inkscape:cy="102.00948"
     inkscape:document-units="mm"
     inkscape:current-layer="layer1"
     inkscape:document-rotation="0"
     showgrid="false"
     inkscape:window-width="1598"
     inkscape:window-height="878"
     inkscape:window-x="0"
     inkscape:window-y="20"
     inkscape:window-maximized="1"
     showguides="true"
     inkscape:guide-bbox="true"
     inkscape:snap-global="true"
     inkscape:snap-center="true">
    <sodipodi:guide
       position="27.500001,27.500001"
       orientation="1,0"
       id="guide1802"
       inkscape:label=""
       inkscape:locked="false"
       inkscape:color="rgb(0,0,255)" />
  </sodipodi:namedview>
  <metadata
     id="metadata898">
    <rdf:RDF>
      <cc:Work
         rdf:about="">
        <dc:format>image/svg+xml</dc:format>
        <dc:type
           rdf:resource="http://purl.org/dc/dcmitype/StillImage" />
        <dc:title></dc:title>
      </cc:Work>
    </rdf:RDF>
  </metadata>
  <g
     inkscape:label="Layer 1"
     inkscape:groupmode="layer"
     id="layer1"
     transform="translate(0,-242)">
    <image
       xlink:href="multiocular-o-bg-smallsquare.jpg"
       style="stroke-width:0.475694"
       y="241"
       x="-0.99999809"
       id="image1492"
       preserveAspectRatio="none"
       height="56.999996"
       width="56.999996" />
    <g
       id="full-text"
       transform="matrix(2.3222072,0,0.45206909,2.3198063,-240.79979,6.9307275)"
       style="display:inline;stroke-width:0.413722"
       inkscape:transform-center-x="0.32836621"
       inkscape:transform-center-y="-0.56867011">
      <path
         id="path2860"
         style="fill:#c94523;fill-opacity:1;fill-rule:evenodd;stroke:#423a1d;stroke-width:0.0848923;stroke-miterlimit:4;stroke-dasharray:none;stroke-opacity:1;stop-color:#000000"
         d="m 100.68973,106.50916 c -0.34016,-0.0523 -0.66198,-0.0326 -0.988799,-0.003 -0.172224,0.67008 -0.469066,1.164 -0.879835,1.49697 0.511543,0.0192 1.114759,0.11979 1.420094,0.44455 0.29203,-0.45145 0.46741,-1.23774 0.44854,-1.93835 z"
         sodipodi:nodetypes="ccccc" />
      <path
         id="path2862"
         style="font-variation-settings:normal;opacity:1;vector-effect:none;fill:#c94523;fill-opacity:1;fill-rule:evenodd;stroke:#423a1d;stroke-width:0.0848923;stroke-linecap:butt;stroke-linejoin:miter;stroke-miterlimit:4;stroke-dasharray:none;stroke-dashoffset:0;stroke-opacity:1;stop-color:#000000;stop-opacity:1"
         d="m 97.858701,112.31791 c 0.206679,0.32971 0.498144,0.81937 0.421871,1.46644 0.657083,-0.0636 1.122107,0.0903 1.640383,-0.15216 0.155525,-0.80808 -0.117988,-1.28541 -0.20836,-1.84557 -0.615811,0.44002 -1.235803,0.53281 -1.853894,0.53129 z"
         sodipodi:nodetypes="ccccc" />
      <path
         id="path2864"
         style="fill:#c94523;fill-opacity:1;fill-rule:evenodd;stroke:#423a1d;stroke-width:0.0848923;stroke-miterlimit:4;stroke-dasharray:none;stroke-opacity:1;stop-color:#000000"
         d="m 94.492418,115.68876 c -0.158212,0.15593 -0.338831,0.28053 -0.539726,0.3759 -0.03684,0.38209 -0.13242,0.8497 -0.07475,1.08369 0.08423,0.34182 1.02886,0.28914 1.243275,-0.0392 0.118585,-0.18159 0.17281,-0.51962 0.144742,-0.88647 -0.349979,-0.088 -0.609082,-0.26425 -0.773536,-0.53389 z" />
      <path
         id="path2866"
         style="fill:#c94523;fill-opacity:1;fill-rule:evenodd;stroke:#423a1d;stroke-width:0.0848923;stroke-miterlimit:4;stroke-dasharray:none;stroke-opacity:1;stop-color:#000000"
         d="m 90.322236,116.2709 c 0.197816,1.49396 1.493822,1.3801 1.861703,-0.0753 -0.299508,-0.0954 -0.524385,-0.2635 -0.67277,-0.50685 -0.314973,0.30812 -0.711482,0.49631 -1.188933,0.58214 z"
         sodipodi:nodetypes="cccc" />
      <path
         id="path2870"
         style="fill:#c94523;fill-opacity:1;fill-rule:evenodd;stroke:#423a1d;stroke-width:0.0848923;stroke-miterlimit:4;stroke-dasharray:none;stroke-opacity:1;stop-color:#000000"
         d="m 98.103492,104.07773 c -0.244332,-0.60853 -0.372532,-1.04895 -0.765056,-1.46223 -1.075341,0.14282 -1.382488,0.72972 -2.080699,1.45695 0.647493,-5.5e-4 1.093092,0.18148 1.365221,0.57152 0.390138,-0.34227 0.878985,-0.53846 1.480534,-0.56624 z"
         sodipodi:nodetypes="ccccc" />
      <path
         id="path2858"
         style="fill:#c94523;fill-opacity:1;fill-rule:evenodd;stroke:#423a1d;stroke-width:0.0848923;stroke-miterlimit:4;stroke-dasharray:none;stroke-opacity:1;stop-color:#000000"
         d="m 93.813252,102.48986 c -0.61646,0.33662 -0.990946,0.89849 -1.226842,1.59956 0.498492,0.0537 0.856512,0.24687 1.06938,0.58321 0.311672,-0.30835 0.703151,-0.49696 1.173292,-0.56783 -0.458471,-0.40831 -0.710421,-0.96181 -1.01583,-1.61494 z" />
      <path
         id="path2856"
         style="fill:#c94523;fill-opacity:1;fill-rule:evenodd;stroke:#423a1d;stroke-width:0.0848923;stroke-miterlimit:4;stroke-dasharray:none;stroke-opacity:1;stop-color:#000000"
         d="m 87.826962,106.41003 c 0.03302,0.67296 0.258581,1.32178 0.636219,1.95108 0.09797,0.001 0.178538,-0.004 0.268802,-0.006 0.537119,-0.27517 0.95832,-0.34503 1.477618,-0.34196 -0.350158,-0.36657 -0.446112,-0.95707 -0.289477,-1.77081 -0.690212,-0.0577 -1.478325,0.0348 -2.093162,0.16753 z"
         sodipodi:nodetypes="cccccc" />
      <path
         id="path2868"
         style="fill:#c94523;fill-opacity:1;fill-rule:evenodd;stroke:#423a1d;stroke-width:0.0848923;stroke-miterlimit:4;stroke-dasharray:none;stroke-opacity:1;stop-color:#000000"
         d="m 88.326931,112.20068 c -0.372481,0.0613 -0.673954,0.13558 -0.82179,0.30433 -0.07233,0.49439 -0.06872,0.59289 0.148452,0.91033 0.152801,0.0883 0.567305,0.002 0.972884,-0.10233 0.165763,-0.38465 0.55257,-0.69014 0.821,-0.95585 -0.33857,-0.0347 -0.851058,-0.0385 -1.120546,-0.15648 z"
         sodipodi:nodetypes="cccccc" />
      <path
         id="path2722"
         style="font-style:italic;font-variant:normal;font-weight:normal;font-stretch:normal;font-size:9.56316px;line-height:1.2;font-family:Vollkorn;-inkscape-font-specification:'Vollkorn, Italic';font-variant-ligatures:no-common-ligatures discretionary-ligatures;font-variant-caps:normal;font-variant-numeric:ordinal;font-variant-east-asian:normal;text-decoration:none;text-decoration-line:none;text-decoration-color:#000000;letter-spacing:-0.0125516px;word-spacing:0px;writing-mode:lr-tb;fill:#423a1d;fill-opacity:1;fill-rule:evenodd;stroke:none;stroke-width:0.0560759;stroke-opacity:0.5"
         d="m 100.61833,108.47515 c -0.26794,-0.38055 -0.734481,-0.57064 -1.399211,-0.57064 l -0.22653,0.0141 c 0.52112,-0.37573 0.86641,-0.99934 1.036141,-1.87122 0.14533,-0.74664 0.0842,-1.31022 -0.183711,-1.69077 -0.26793,-0.38054 -0.73448,-0.57063 -1.39923,-0.57063 -0.70189,0 -1.2642,0.20902 -1.6875,0.62645 -0.0115,-0.0184 -0.0211,-0.0382 -0.0335,-0.0558 -0.26793,-0.38054 -0.73448,-0.57063 -1.39922,-0.57063 -0.70329,0 -1.26663,0.20955 -1.69022,0.62862 -0.26525,-0.41907 -0.74237,-0.62862 -1.4312,-0.62854 -1.3584,9e-5 -2.18412,0.75377 -2.47763,2.26149 -0.16692,0.85743 -0.0663,1.47883 0.30184,1.86418 l -0.17233,-0.007 c -1.35838,0 -2.18411,0.75422 -2.47761,2.26193 -0.14536,0.74664 -0.0901,1.31469 0.16636,1.70485 0.26124,0.39019 0.72417,0.58527 1.38892,0.58527 0.0709,-8.5e-4 0.14093,-0.003 0.21135,-0.007 -0.51629,0.37572 -0.85699,0.98712 -1.02204,1.83491 -0.14534,0.74664 -0.0901,1.31522 0.16637,1.70539 0.26122,0.39018 0.72417,0.58527 1.38891,0.58527 0.71291,0 1.28403,-0.20954 1.71245,-0.62861 0.2556,0.41907 0.72495,0.62861 1.40897,0.62861 0.718,0 1.28756,-0.21093 1.71136,-0.62861 0.2556,0.41907 0.72495,0.62861 1.40897,0.62861 1.37267,0 2.20791,-0.76349 2.50525,-2.29039 0.16489,-0.84778 0.0627,-1.45954 -0.30729,-1.83531 0.0601,0.005 0.11457,0.007 0.17932,0.007 1.37283,-6e-5 2.206741,-0.764 2.504721,-2.29074 0.14534,-0.74667 0.0842,-1.31025 -0.18371,-1.69079 z m -9.979951,-0.98976 c -0.11418,-0.27939 -0.10512,-0.75904 0.0271,-1.43823 0.13129,-0.67438 0.30726,-1.14627 0.52837,-1.41602 0.2211,-0.26975 0.51728,-0.40481 0.88826,-0.40481 0.3806,0 0.63496,0.14005 0.76361,0.41943 0.12894,0.27939 0.12971,0.74629 0.002,1.4014 -0.12781,0.65511 -0.31169,1.12975 -0.55208,1.4236 -0.23464,0.28901 -0.5447,0.43353 -0.92281,0.43353 -0.37811,0 -0.62025,-0.13952 -0.73445,-0.4189 z m 4.56509,-3.25906 c 0.38063,0 0.635,0.14005 0.76364,0.41943 0.12894,0.27939 0.1297,0.74629 0.002,1.4014 -0.1278,0.65511 -0.31178,1.12928 -0.55207,1.4236 -0.23464,0.28901 -0.5447,0.43353 -0.93006,0.43353 -0.3709,0 -0.61304,-0.13952 -0.72724,-0.4189 -0.11418,-0.27939 -0.10512,-0.75904 0.0373,-1.49243 0.14087,-0.67558 0.31337,-1.11634 0.53024,-1.37646 0.21688,-0.26012 0.50999,-0.39017 0.87619,-0.39017 z m 3.88397,0.41948 c 0.12904,0.27939 0.12972,0.74629 0.002,1.4014 -0.12781,0.65511 -0.31214,1.12928 -0.55207,1.4236 -0.23462,0.28901 -0.5447,0.43353 -0.93006,0.43353 -0.37091,0 -0.61304,-0.13952 -0.72724,-0.4189 -0.11308,-0.27675 -0.10424,-0.75133 0.0399,-1.50218 0.13886,-0.66585 0.31137,-1.10661 0.52577,-1.36672 0.21919,-0.26013 0.51229,-0.39018 0.87827,-0.39017 0.38042,1e-5 0.63478,0.14006 0.76343,0.41944 z m -7.90864,1.36562 c -0.03,0.15415 -3.6e-4,0.28644 0.0888,0.39722 0.095,0.10599 0.22424,0.15878 0.38803,0.15878 0.15895,0 0.30648,-0.0528 0.44273,-0.15878 0.13718,-0.11078 0.22092,-0.24307 0.25091,-0.39722 0.0309,-0.15895 -8e-4,-0.29401 -0.0948,-0.4048 -0.0941,-0.11079 -0.22038,-0.16638 -0.37935,-0.16638 -0.1638,0 -0.31425,0.0556 -0.44898,0.16638 -0.13473,0.11079 -0.21638,0.24585 -0.24734,0.4048 z m 3.1214,0 c -0.03,0.15415 -3.5e-4,0.28644 0.089,0.39722 0.095,0.10599 0.22423,0.15878 0.38801,0.15878 0.15895,0 0.3065,-0.0528 0.44274,-0.15878 0.13718,-0.11078 0.22091,-0.24307 0.2509,-0.39722 0.031,-0.15895 -7.9e-4,-0.29401 -0.0948,-0.4048 -0.0941,-0.11079 -0.22038,-0.16638 -0.37939,-0.16638 -0.16385,0 -0.3143,0.0556 -0.44908,0.16638 -0.13478,0.11079 -0.21641,0.24585 -0.24738,0.4048 z m 3.12034,0 c -0.03,0.15415 -3.8e-4,0.28644 0.0888,0.39722 0.095,0.10602 0.22424,0.15878 0.38801,0.15878 0.15897,0 0.3065,-0.0528 0.44274,-0.15878 0.13719,-0.11078 0.22093,-0.24307 0.25092,-0.39722 0.031,-0.15895 -7.8e-4,-0.29401 -0.0948,-0.4048 -0.0941,-0.11081 -0.22038,-0.16638 -0.37934,-0.16638 -0.16381,0 -0.31426,0.0556 -0.44903,0.16638 -0.13476,0.11079 -0.21637,0.24585 -0.2473,0.4048 z m -7.68602,2.33348 c 0.41434,0 0.67273,0.15673 0.77556,0.46983 0.10835,0.3083 0.10505,0.7585 -0.0105,1.35098 -0.11722,0.60214 -0.29083,1.06234 -0.52133,1.38025 -0.22557,0.31778 -0.54573,0.47689 -0.95998,0.47689 -0.37087,-1.4e-4 -0.61338,-0.13966 -0.72752,-0.4189 -0.11417,-0.27938 -0.1051,-0.75904 0.0266,-1.43583 0.13175,-0.67678 0.30827,-1.14867 0.5294,-1.41841 0.22113,-0.26975 0.51676,-0.40481 0.88777,-0.40481 z m 1.70476,1.82081 c 0.13128,-0.67437 0.3078,-1.14626 0.5289,-1.41601 0.22111,-0.26974 0.51674,-0.4048 0.88774,-0.4048 0.41435,0 0.67274,0.15673 0.77557,0.46983 0.10835,0.3083 0.10505,0.7585 -0.0105,1.35098 -0.11722,0.60214 -0.29085,1.06234 -0.52133,1.38025 -0.22557,0.31778 -0.54573,0.47689 -0.95998,0.47689 -0.37087,-1.4e-4 -0.61338,-0.13966 -0.72754,-0.41897 -0.11415,-0.27931 -0.10509,-0.75897 0.0271,-1.43817 z m 3.09384,1.43821 c -0.11326,-0.2842 -0.10424,-0.76385 0.0271,-1.43824 0.13127,-0.67437 0.30725,-1.14626 0.52836,-1.41601 0.22109,-0.26974 0.51728,-0.4048 0.88825,-0.4048 0.3806,0 0.63494,0.14005 0.76361,0.41943 0.12893,0.27938 0.1297,0.74627 0.002,1.40138 -0.12781,0.65511 -0.31075,1.1299 -0.55208,1.4236 -0.23461,0.28902 -0.54415,0.43354 -0.92226,0.43354 -0.37811,0 -0.62078,-0.13951 -0.73498,-0.4189 z m 5.32763,-2.83966 c 0.12905,0.27938 0.1297,0.74627 0.002,1.40138 -0.12782,0.65512 -0.31169,1.12977 -0.55194,1.4236 -0.23451,0.28902 -0.54403,0.43354 -0.92938,0.43354 -0.37091,0 -0.61358,-0.13951 -0.72779,-0.4189 -0.11204,-0.28125 -0.1035,-0.75538 0.0284,-1.44272 0.13341,-0.67796 0.30759,-1.1451 0.52645,-1.41153 0.22097,-0.26975 0.51714,-0.4048 0.89319,-0.4048 0.37605,0 0.63042,0.14005 0.75907,0.41943 z m -11.03007,1.36562 c -0.03,0.15413 -3.4e-4,0.28642 0.0889,0.39723 0.095,0.10596 0.22423,0.15877 0.38802,0.15877 0.15895,0 0.30649,-0.0528 0.44274,-0.15877 0.13718,-0.11081 0.22092,-0.2431 0.25091,-0.39723 0.0309,-0.15897 -8.2e-4,-0.29402 -0.0948,-0.4048 -0.0941,-0.11081 -0.22038,-0.16637 -0.3794,-0.16637 -0.16383,0 -0.3143,0.0556 -0.44903,0.16637 -0.13473,0.11078 -0.21636,0.24583 -0.24734,0.4048 z m 3.12142,0 c -0.03,0.15413 -3.5e-4,0.28642 0.0888,0.39723 0.095,0.10596 0.22422,0.15877 0.388,0.15877 0.15896,0 0.3065,-0.0528 0.44274,-0.15877 0.13719,-0.11081 0.22091,-0.2431 0.25091,-0.39723 0.031,-0.15897 -8e-4,-0.29402 -0.0948,-0.4048 -0.0941,-0.11081 -0.22038,-0.16637 -0.37935,-0.16637 -0.16377,0 -0.31424,0.0556 -0.44897,0.16637 -0.13473,0.11078 -0.21636,0.24583 -0.24733,0.4048 z m 3.12141,0 c -0.03,0.15413 -3.5e-4,0.28642 0.0889,0.39723 0.095,0.10596 0.22422,0.15877 0.388,0.15877 0.15896,0 0.3065,-0.0528 0.44274,-0.15877 0.13719,-0.11081 0.22091,-0.2431 0.25091,-0.39723 0.0309,-0.15897 -8e-4,-0.29402 -0.0948,-0.4048 -0.0941,-0.11081 -0.22038,-0.16637 -0.3794,-0.16637 -0.16383,0 -0.31429,0.0556 -0.44902,0.16637 -0.13472,0.11078 -0.21636,0.24583 -0.24733,0.4048 z m 3.12033,0 c -0.03,0.15414 -3.7e-4,0.28643 0.0889,0.39723 0.095,0.10599 0.22422,0.15877 0.38801,0.15877 0.15895,0 0.30649,-0.0528 0.44274,-0.15877 0.13719,-0.1108 0.22091,-0.24309 0.2509,-0.39723 0.0311,-0.15897 -7.6e-4,-0.29401 -0.0948,-0.4048 -0.0941,-0.11083 -0.22039,-0.16637 -0.37935,-0.16637 -0.16378,0 -0.31423,0.0556 -0.44904,0.16638 -0.13481,0.11078 -0.21643,0.24582 -0.24736,0.40479 z m -9.15896,5.59253 c -0.11417,-0.27939 -0.10512,-0.75904 0.0271,-1.43824 0.13129,-0.67437 0.30727,-1.14626 0.52837,-1.41601 0.22111,-0.26976 0.51729,-0.4048 0.88825,-0.4048 0.3806,0 0.63495,0.14004 0.76362,0.41943 0.12892,0.27939 0.12985,0.74628 0.002,1.40138 -0.11748,0.60213 -0.29101,1.06239 -0.52172,1.38024 -0.22581,0.31793 -0.54614,0.4769 -0.9604,0.4769 -0.37089,0 -0.61302,-0.13953 -0.72722,-0.4189 z m 3.12142,0 c -0.11325,-0.28421 -0.10413,-0.76386 0.0271,-1.43824 0.12753,-0.6551 0.2999,-1.12199 0.51806,-1.40138 0.223,-0.27939 0.52276,-0.41943 0.89855,-0.41943 0.38061,0 0.63495,0.14004 0.76362,0.41943 0.12892,0.27939 0.12973,0.74653 0.002,1.40138 -0.12779,0.65512 -0.31169,1.12977 -0.55207,1.4236 -0.23463,0.28903 -0.5447,0.43354 -0.93004,0.43354 -0.37089,0 -0.61302,-0.13953 -0.72722,-0.4189 z m 3.84749,0.41894 c -0.37091,0 -0.61302,-0.13953 -0.72723,-0.4189 -0.11205,-0.28124 -0.10351,-0.75537 0.0284,-1.44128 0.12976,-0.65921 0.30061,-1.12152 0.51683,-1.39841 0.22298,-0.27938 0.52218,-0.41943 0.89851,-0.4194 0.38055,4e-5 0.6349,0.14008 0.76379,0.41947 0.1289,0.27939 0.12954,0.74627 0.002,1.40138 -0.12774,0.65511 -0.31164,1.12977 -0.54926,1.4212 -0.23761,0.29143 -0.54769,0.43594 -0.93304,0.43594 z m -6.42852,-1.8929 c -0.03,0.15414 -3.6e-4,0.28644 0.089,0.39721 0.095,0.10598 0.22423,0.15879 0.388,0.15879 0.15897,0 0.30651,-0.0528 0.44275,-0.15879 0.13719,-0.11077 0.22091,-0.24307 0.25091,-0.39721 0.0309,-0.15896 -8.1e-4,-0.29401 -0.0948,-0.40482 -0.0941,-0.11077 -0.22039,-0.16636 -0.3794,-0.16636 -0.16383,0 -0.3143,0.0556 -0.44908,0.16638 -0.13477,0.11079 -0.21641,0.24584 -0.24738,0.4048 z m 3.12141,0 c -0.03,0.15414 -3.6e-4,0.28644 0.089,0.39721 0.095,0.10598 0.22423,0.15879 0.388,0.15879 0.15897,0 0.30651,-0.0528 0.44275,-0.15879 0.13719,-0.11077 0.22091,-0.24307 0.25091,-0.39721 0.031,-0.15896 -8e-4,-0.29401 -0.0948,-0.40482 -0.0941,-0.11077 -0.22039,-0.16636 -0.3794,-0.16636 -0.16383,0 -0.3143,0.0556 -0.44908,0.16638 -0.13477,0.11079 -0.21641,0.24584 -0.24738,0.4048 z m 3.12033,0 c -0.03,0.15414 -3.7e-4,0.28644 0.089,0.39721 0.095,0.10602 0.22423,0.15879 0.38801,0.15879 0.15896,0 0.30649,-0.0528 0.44275,-0.15879 0.13719,-0.11077 0.22091,-0.24307 0.2509,-0.39721 0.0311,-0.15896 -7.6e-4,-0.29401 -0.0948,-0.40482 -0.0941,-0.11079 -0.22039,-0.16636 -0.3794,-0.16636 -0.16384,0 -0.3143,0.0556 -0.44911,0.16638 -0.1348,0.11079 -0.21641,0.24584 -0.24735,0.4048 z"
         sodipodi:nodetypes="sccsssccsccsccscccscscscsccccsccccscccccccccccccsccsscccsssscccccssscsscssscscsscsscssscccscssscccsscssccscscssccccsscsccscsccsccsssscsccsscsccccsscsssccsscscsccssccccscssccccsscccsccsccsscccccssscccccssssccccss" />
    </g>
    <rect
       style="display:inline;fill:url(#linearGradient3574);fill-opacity:1;fill-rule:evenodd;stroke:none;stroke-width:0.2;stroke-miterlimit:4;stroke-dasharray:none;stroke-opacity:1;stop-color:#000000"
       id="rect1648"
       width="85"
       height="20.414639"
       x="-15.344225"
       y="278.80948" />
    <text
       xml:space="preserve"
       style="font-style:normal;font-variant:normal;font-weight:normal;font-stretch:normal;font-size:3.26778px;line-height:1.2;font-family:'Roboto Mono';-inkscape-font-specification:'Roboto Mono, Normal';font-variant-ligatures:no-common-ligatures discretionary-ligatures;font-variant-caps:normal;font-variant-numeric:ordinal;font-variant-east-asian:normal;font-variation-settings:normal;text-align:center;text-decoration:none;text-decoration-line:none;text-decoration-color:#000000;letter-spacing:-0.0142965px;word-spacing:0px;writing-mode:lr-tb;text-anchor:middle;display:inline;vector-effect:none;fill:#423a1d;fill-opacity:1;fill-rule:evenodd;stroke:none;stroke-width:0.130153;stroke-linecap:butt;stroke-linejoin:miter;stroke-miterlimit:4;stroke-dasharray:none;stroke-dashoffset:0;stroke-opacity:0.5;stop-color:#000000"
       x="27.480087"
       y="286.93637"
       id="text905"><tspan
         sodipodi:role="line"
         id="tspan903"
         x="27.480087"
         y="286.93637"
         style="font-style:normal;font-variant:normal;font-weight:normal;font-stretch:normal;font-size:3.26778px;font-family:'Roboto Mono';-inkscape-font-specification:'Roboto Mono, Normal';font-variant-ligatures:no-common-ligatures discretionary-ligatures;font-variant-caps:normal;font-variant-numeric:ordinal;font-variant-east-asian:normal;font-variation-settings:normal;text-align:center;text-anchor:middle;vector-effect:none;fill:#423a1d;fill-opacity:1;stroke:none;stroke-width:0.130153;stroke-linecap:butt;stroke-linejoin:miter;stroke-miterlimit:4;stroke-dasharray:none;stroke-dashoffset:0;stroke-opacity:0.5;stop-color:#000000;stop-opacity:1">U+A66E</tspan><tspan
         sodipodi:role="line"
         x="27.480087"
         y="290.8577"
         style="font-style:normal;font-variant:normal;font-weight:normal;font-stretch:normal;font-size:3.26778px;font-family:'Roboto Mono';-inkscape-font-specification:'Roboto Mono, Normal';font-variant-ligatures:no-common-ligatures discretionary-ligatures;font-variant-caps:normal;font-variant-numeric:ordinal;font-variant-east-asian:normal;font-variation-settings:normal;text-align:center;text-anchor:middle;vector-effect:none;fill:#423a1d;fill-opacity:1;stroke:none;stroke-width:0.130153;stroke-linecap:butt;stroke-linejoin:miter;stroke-miterlimit:4;stroke-dasharray:none;stroke-dashoffset:0;stroke-opacity:0.5;stop-color:#000000;stop-opacity:1"
         id="tspan1688">CYRILLIC LETTER</tspan><tspan
         sodipodi:role="line"
         x="27.47294"
         y="294.77905"
         style="font-style:normal;font-variant:normal;font-weight:normal;font-stretch:normal;font-size:3.26778px;font-family:'Roboto Mono';-inkscape-font-specification:'Roboto Mono, Normal';font-variant-ligatures:no-common-ligatures discretionary-ligatures;font-variant-caps:normal;font-variant-numeric:ordinal;font-variant-east-asian:normal;font-variation-settings:normal;text-align:center;text-anchor:middle;vector-effect:none;fill:#423a1d;fill-opacity:1;stroke:none;stroke-width:0.130153;stroke-linecap:butt;stroke-linejoin:miter;stroke-miterlimit:4;stroke-dasharray:none;stroke-dashoffset:0;stroke-opacity:0.5;stop-color:#000000;stop-opacity:1"
         id="tspan1694">MULTIOCULAR O</tspan></text>
  </g>
</svg>
